<?xml version="1.0" standalone="no"?>
<!DOCTYPE svg PUBLIC "-//W3C//DTD SVG 20010904//EN"
 "http://www.w3.org/TR/2001/REC-SVG-20010904/DTD/svg10.dtd">
<svg version="1.0" xmlns="http://www.w3.org/2000/svg"
 width="960.000000pt" height="960.000000pt" viewBox="0 0 960.000000 960.000000"
 preserveAspectRatio="xMidYMid meet">
<metadata>
Created by potrace 1.11, written by Peter Selinger 2001-2013
</metadata>
<g transform="translate(0.000000,960.000000) scale(0.100000,-0.100000)"
fill="#000000" stroke="none">
<path d="M9569 9056 c-2 -3 -26 -7 -52 -10 -27 -3 -52 -8 -55 -10 -4 -2 -34
-7 -67 -11 -32 -3 -62 -8 -66 -10 -3 -3 -21 -7 -40 -9 -19 -3 -45 -7 -59 -10
-24 -5 -174 -31 -235 -41 -16 -3 -57 -9 -90 -15 -33 -6 -71 -12 -85 -14 -14
-2 -36 -7 -50 -10 -14 -3 -41 -8 -60 -11 -19 -2 -44 -6 -55 -9 -11 -2 -42 -7
-70 -11 -27 -5 -52 -9 -55 -10 -3 0 -27 -5 -55 -10 -27 -4 -57 -10 -65 -11 -8
-2 -30 -6 -48 -9 -17 -3 -47 -8 -65 -10 -17 -3 -43 -7 -57 -10 -59 -12 -193
-35 -235 -40 -11 -1 -20 -3 -20 -4 0 -1 -16 -4 -35 -7 -19 -2 -46 -6 -60 -10
-14 -3 -38 -8 -55 -10 -35 -5 -70 -12 -70 -14 0 -1 -13 -3 -30 -5 -16 -2 -43
-6 -60 -9 -25 -4 -139 -23 -246 -41 -14 -3 -61 -11 -104 -20 -43 -8 -81 -12
-86 -10 -9 6 -59 -63 -59 -82 0 -7 -4 -13 -9 -13 -5 0 -12 -12 -16 -27 -3 -15
-10 -30 -13 -33 -4 -3 -36 -61 -71 -130 -35 -69 -89 -174 -121 -235 -32 -60
-92 -177 -135 -260 -154 -297 -177 -340 -186 -350 -5 -5 -9 -17 -9 -26 0 -10
-5 -19 -11 -21 -5 -2 -11 -10 -12 -18 -2 -8 -5 -19 -9 -25 -9 -15 -81 -152
-175 -335 -47 -91 -90 -171 -96 -177 -5 -7 -6 -13 -1 -13 5 0 4 -4 -1 -8 -6
-4 -19 -25 -30 -47 -11 -22 -30 -57 -43 -77 -12 -21 -19 -38 -16 -38 4 0 -1
-9 -11 -20 -10 -11 -15 -20 -11 -20 4 0 -1 -12 -12 -27 -11 -16 -23 -38 -26
-50 -4 -13 -12 -23 -18 -23 -6 0 -8 -3 -5 -6 3 -4 -4 -25 -17 -48 -22 -38 -60
-112 -251 -481 -43 -82 -93 -179 -112 -215 -19 -36 -69 -132 -111 -215 -42
-82 -79 -152 -82 -155 -3 -3 -12 -21 -21 -40 l-16 -34 -25 39 c-14 22 -39 65
-55 95 -17 30 -52 90 -77 133 -25 43 -46 80 -46 83 0 3 -13 24 -28 47 -15 23
-33 53 -40 67 -7 14 -24 45 -39 70 -14 25 -33 57 -42 72 -20 35 -123 212 -149
258 -11 19 -43 75 -71 123 -28 49 -51 93 -51 98 0 5 -4 9 -10 9 -5 0 -10 4
-10 10 0 5 -18 39 -40 75 -22 36 -40 67 -40 70 0 3 -17 33 -38 67 -21 35 -41
70 -45 78 -4 8 -17 31 -28 50 -51 85 -227 390 -277 480 -13 25 -31 52 -38 61
-8 8 -14 19 -14 22 0 6 -103 188 -169 297 -11 19 -24 42 -28 50 -3 8 -21 39
-40 68 -18 29 -33 59 -33 66 0 8 -4 16 -8 18 -5 2 -32 45 -61 96 -49 84 -60
97 -84 93 -4 -1 -24 -4 -45 -7 -38 -5 -68 -11 -112 -18 -40 -8 -202 -35 -244
-42 -21 -3 -48 -8 -60 -10 -11 -2 -34 -7 -51 -9 -74 -13 -143 -25 -175 -30
-48 -8 -101 -17 -125 -22 -11 -2 -37 -6 -58 -9 -43 -7 -70 -12 -77 -14 -3 -1
-8 -2 -12 -1 -3 0 -52 -8 -108 -19 -57 -11 -106 -17 -111 -15 -4 3 -10 2 -13
-3 -2 -4 -19 -9 -37 -10 -18 -1 -65 -9 -103 -17 -39 -8 -89 -17 -111 -20 -23
-3 -50 -7 -60 -9 -11 -2 -40 -7 -65 -11 -25 -4 -54 -9 -65 -11 -63 -13 -130
-23 -172 -26 -7 -1 -13 -4 -13 -7 0 -3 -10 -6 -22 -7 -13 0 -41 -3 -63 -7 -22
-4 -53 -9 -70 -12 -40 -6 -84 -14 -115 -19 -14 -3 -54 -10 -90 -16 -36 -6 -74
-13 -85 -14 -11 -2 -33 -6 -50 -9 -16 -3 -50 -9 -75 -12 -24 -4 -47 -8 -50
-10 -3 -2 -33 -7 -65 -10 -33 -4 -63 -9 -66 -11 -3 -1 -25 -6 -50 -9 -52 -7
-84 -13 -84 -15 0 -1 -9 -3 -20 -4 -20 -3 -115 -18 -125 -21 -3 0 -26 -4 -51
-8 -25 -4 -57 -10 -70 -12 -13 -2 -40 -6 -59 -9 -19 -3 -46 -8 -60 -11 -14 -3
-38 -7 -55 -10 -16 -3 -43 -7 -60 -10 -16 -3 -39 -7 -50 -9 -11 -2 -45 -7 -75
-11 -30 -5 -57 -9 -60 -10 -48 -11 -72 -16 -105 -20 -22 -2 -51 -7 -65 -10
-14 -3 -50 -9 -80 -15 -30 -5 -71 -12 -90 -16 -19 -3 -46 -8 -60 -9 -14 -2
-25 -4 -25 -5 0 -1 -16 -3 -35 -4 -34 -2 -35 -2 -37 -51 -3 -75 -13 -388 -18
-585 -2 -96 -5 -175 -5 -175 -1 0 -3 -67 -5 -150 -2 -82 -7 -224 -9 -315 -14
-425 -19 -615 -20 -730 l-1 -125 35 2 c19 2 46 5 60 7 14 3 39 7 55 10 17 2
41 7 55 10 14 3 41 8 60 11 19 2 44 6 55 9 18 3 67 11 135 21 30 5 55 9 180
31 52 9 104 17 115 19 11 1 47 7 80 13 33 6 78 14 100 17 22 3 92 15 155 26
63 11 130 22 149 24 19 3 57 9 85 14 69 14 124 22 166 26 l36 4 -2 -155 c-1
-86 -5 -158 -8 -161 -3 -3 -1 -13 4 -23 5 -10 6 -20 3 -24 -4 -4 -8 -86 -9
-184 -1 -97 -5 -330 -8 -517 -4 -187 -9 -434 -11 -550 -2 -115 -7 -356 -10
-535 -3 -179 -8 -413 -10 -520 -2 -107 -6 -332 -10 -500 -3 -168 -7 -429 -10
-580 -3 -151 -7 -370 -9 -487 -2 -116 -7 -216 -10 -222 -4 -5 -2 -12 4 -16 6
-4 8 -10 5 -14 -2 -5 -7 -126 -10 -270 l-5 -262 32 5 c18 4 47 9 63 12 17 3
41 7 55 8 24 3 94 14 135 22 10 2 37 6 60 9 22 3 65 10 95 15 30 5 73 12 95
15 22 4 47 8 55 10 8 2 35 7 60 10 25 3 70 10 100 15 30 5 71 12 90 15 19 2
62 9 94 14 32 6 63 8 67 5 5 -3 9 0 9 7 0 7 2 10 5 7 3 -3 27 -1 53 4 26 5 66
11 88 14 23 2 53 7 65 9 37 8 161 28 189 30 14 2 25 4 25 5 0 1 11 3 25 5 71
9 107 15 130 20 14 3 43 7 65 10 22 3 47 7 55 10 8 2 35 6 60 9 25 3 54 8 65
10 11 2 40 7 65 11 25 3 59 9 75 12 17 3 41 7 55 8 14 2 41 6 60 10 19 3 51 8
70 11 19 2 46 7 59 9 13 2 45 7 70 11 71 10 83 13 90 19 3 4 6 41 7 83 1 42 5
219 9 392 4 173 8 397 9 497 0 101 5 183 9 183 4 0 3 8 -2 18 -5 10 -6 23 -2
30 4 7 6 27 4 44 -2 18 -4 38 -4 43 0 6 3 84 5 175 3 91 7 278 10 415 3 138 8
369 11 515 4 146 8 334 9 418 2 84 5 155 8 157 2 2 18 -24 36 -58 38 -73 71
-136 83 -157 5 -8 15 -26 21 -40 7 -14 20 -37 31 -53 10 -15 15 -27 11 -27 -4
0 -1 -8 8 -17 8 -10 29 -47 48 -83 64 -121 81 -155 117 -220 19 -36 55 -103
80 -150 24 -47 67 -125 94 -175 27 -49 62 -117 79 -150 17 -33 39 -73 49 -90
9 -16 46 -84 81 -150 34 -66 76 -145 93 -175 16 -30 41 -77 55 -105 14 -27 34
-62 44 -77 11 -16 16 -28 13 -28 -3 0 2 -12 13 -28 10 -15 33 -56 51 -91 42
-82 71 -133 83 -148 6 -7 8 -13 5 -13 -4 0 9 -26 27 -57 18 -32 59 -107 91
-168 32 -60 66 -123 75 -140 9 -16 34 -64 55 -105 21 -41 47 -87 57 -102 10
-14 18 -33 18 -42 0 -9 4 -16 10 -16 5 0 12 -11 16 -25 7 -27 4 -27 99 -10 38
7 46 18 103 135 26 52 50 96 54 98 5 2 8 8 8 14 0 10 1485 2986 1494 2996 5 4
3 -121 -9 -608 -3 -140 -8 -356 -10 -480 -11 -523 -17 -803 -21 -925 -2 -71
-4 -134 -4 -140 0 -5 1 -23 3 -40 1 -16 -1 -38 -5 -47 -5 -9 -4 -20 2 -23 6
-4 8 -11 5 -16 -6 -9 -21 -623 -16 -681 1 -16 22 -17 71 -3 8 3 33 7 55 10 53
8 114 19 270 47 33 5 71 12 85 13 14 2 25 4 25 5 0 1 11 3 25 5 14 1 68 10
120 19 52 9 109 19 125 22 17 2 66 11 111 19 81 15 104 19 179 30 22 3 47 9
55 12 16 5 45 10 122 17 25 2 51 7 57 10 6 4 25 9 43 11 46 5 108 15 138 21
14 3 36 8 50 10 14 2 36 6 50 9 14 3 44 8 66 11 23 2 53 7 65 10 13 3 76 14
139 24 63 10 126 22 140 25 14 3 39 8 55 9 17 2 59 9 95 16 36 7 74 13 85 15
65 6 176 29 181 37 4 5 8 87 10 181 3 161 6 291 20 907 3 135 7 340 9 455 11
497 15 682 19 880 7 265 17 704 21 901 1 84 5 157 9 163 4 6 4 11 -1 11 -4 0
-8 18 -8 40 0 22 2 40 5 40 3 0 6 82 7 183 4 432 9 617 16 617 4 0 4 8 0 18
-7 15 -9 34 -4 52 1 3 4 113 6 245 10 456 14 660 15 660 6 0 3 68 -3 72 -4 2
-4 9 -1 15 4 6 8 83 10 172 2 89 5 271 8 406 3 135 8 349 11 475 3 127 7 332
10 458 4 184 2 227 -8 227 -8 0 -16 -2 -18 -4z"/>
</g>
</svg>
