<svg height="99.035" viewBox="0 0 99.035 99.035" width="99.035" xmlns="http://www.w3.org/2000/svg"><g fill="#ff6200" transform="translate(147.365 -302.888)"><path d="m-97.847 302.888a49.333 49.333 0 0 1 35.014 14.505 49.334 49.334 0 0 1 14.5 35.013 49.336 49.336 0 0 1 -14.5 35.013 49.336 49.336 0 0 1 -35.014 14.5 49.336 49.336 0 0 1 -35.013-14.5 49.336 49.336 0 0 1 -14.5-35.013 49.334 49.334 0 0 1 14.5-35.013 49.332 49.332 0 0 1 35.013-14.505zm32.3 17.246a45.621 45.621 0 0 0 -32.3-13.381 45.507 45.507 0 0 0 -32.271 13.381 45.5 45.5 0 0 0 -13.38 32.272 45.613 45.613 0 0 0 13.38 32.3 45.482 45.482 0 0 0 32.271 13.353 45.6 45.6 0 0 0 32.3-13.353 45.594 45.594 0 0 0 13.353-32.3 45.481 45.481 0 0 0 -13.353-32.272z"/><path d="m-94.063 342.288v-4.058a2.126 2.126 0 0 1 2.222-2.412h5.675v-8.665h-7.814c-8.692 0-10.639 6.416-10.639 10.584v4.551h-5.045v10.118h5.1v25.28h10.119v-25.28h7.485l.329-3.976.6-6.142z" fill-rule="evenodd"/></g></svg>