<svg enable-background="new 0 0 1280 378" viewBox="0 0 1280 378" xmlns="http://www.w3.org/2000/svg"><path d="m0 1890v-1890h6350 6350v1890 1890h-6350-6350zm422 1613c16-14 18-33 18-163 0-100-4-150-12-158s-47-12-109-12c-130 0-129-1-129 177 0 171 2 173 127 173 66 0 91-4 105-17zm638-3c18-18 20-33 20-157 0-175 1-173-126-173s-124-4-124 172c0 180-1 178 122 178 75 0 91-3 108-20zm634 4c13-13 16-42 16-163 0-101-4-151-12-159s-47-12-109-12c-78 0-99 3-110 17-11 12-14 53-14 160 0 176-2 173 126 173 66 0 91-4 103-16zm638-1c16-14 18-33 18-159 0-178 3-174-125-174s-125-4-125 172c0 180-1 178 123 178 70 0 95-4 109-17zm634 3c17-13 19-27 19-159 0-107-3-148-14-160-11-14-32-17-110-17-62 0-101 4-109 12s-12 59-12 165c0 134 2 153 18 162 27 16 185 14 208-3zm636-3c16-14 18-33 18-159 0-178 3-174-122-174-129 0-128-2-128 172 0 176 1 178 127 178 66 0 91-4 105-17zm638-3c18-18 20-33 20-153 0-178 1-177-129-177-62 0-101 4-109 12s-12 58-12 159c0 183-3 179 121 179 76 0 92-3 109-20zm632 3c16-14 18-33 18-159 0-178 3-174-125-174-125 0-125 0-125 177 0 171 2 173 127 173 66 0 91-4 105-17zm638-3c18-18 20-33 20-153 0-177 0-177-125-177-128 0-125-4-125 172 0 180-1 178 122 178 75 0 91-3 108-20zm634 4c13-13 16-42 16-163 0-101-4-151-12-159s-47-12-109-12c-130 0-129-1-129 177 0 171 1 173 129 173 68 0 93-4 105-16zm636-4c18-18 20-33 20-157 0-175 1-173-126-173s-124-4-124 172c0 180-1 178 122 178 75 0 91-3 108-20zm631 10c17-10 19-23 19-163 0-106-4-157-12-165s-47-12-109-12c-78 0-99 3-110 17-11 12-14 53-14 160 0 132 2 146 19 159 24 17 177 20 207 4zm641-7c16-14 18-33 18-159 0-178 3-174-125-174s-125-4-125 172c0 180-1 178 123 178 70 0 95-4 109-17zm634 3c17-13 19-27 19-159 0-107-3-148-14-160-11-14-32-17-110-17-62 0-101 4-109 12s-12 58-12 159c0 121 3 150 16 163 21 22 181 23 210 2zm636-3c16-14 18-33 18-159 0-178 3-174-122-174-129 0-128-2-128 172 0 176 1 178 127 178 66 0 91-4 105-17zm638-3c18-18 20-33 20-153 0-178 1-177-129-177-62 0-101 4-109 12s-12 57-12 157c0 183-1 181 122 181 75 0 91-3 108-20zm632 3c16-14 18-33 18-163 0-100-4-150-12-158s-47-12-109-12c-130 0-129-1-129 177 0 171 2 173 127 173 66 0 91-4 105-17zm638-3c18-18 20-33 20-157 0-175 1-173-126-173s-124-4-124 172c0 180-1 178 122 178 75 0 91-3 108-20zm634 4c13-13 16-42 16-163 0-101-4-151-12-159s-47-12-109-12c-78 0-99 3-110 17-11 12-14 53-14 160 0 176-2 173 126 173 66 0 91-4 103-16zm638-1c16-14 18-33 18-159 0-178 3-174-125-174s-125-4-125 172c0 180-1 178 123 178 70 0 95-4 109-17zm-9432-1603v-1130h-1510-1510v1130 1130h1510 1510zm3180 0v-1130h-1510-1510v1130 1130h1510 1510zm3175 0v-1125l-1504-3c-1197-2-1506 0-1513 10-9 15-11 2208-2 2232 6 15 145 16 1513 14l1506-3zm3180 0v-1125h-1510-1510l-3 1115c-1 613 0 1121 3 1128 3 10 311 12 1512 10l1508-3zm-12187-1316c21-14 22-22 22-163 0-126-3-151-17-162-10-9-48-15-99-18-78-3-84-1-108 23-25 24-26 29-26 161 0 172 2 175 123 175 59 0 89-5 105-16zm642-4c18-18 20-33 20-158 0-180 2-177-123-177-65 0-99 4-110 14-14 11-17 36-17 162 0 180-1 179 127 179 70 0 86-3 103-20zm628 4c21-14 22-22 22-163 0-181 4-176-122-176-124 0-128 5-128 172 0 119 7 158 34 175 22 15 170 9 194-8zm642-4c18-18 20-33 20-158 0-180 2-177-125-177s-125-3-125 177c0 176 1 178 125 178 72 0 88-3 105-20zm631 1c23-19 24-24 24-160 0-177 1-176-124-176-124 0-121-5-121 176 0 141 1 149 22 163 34 24 168 22 199-3zm637 3c21-14 22-22 22-158 0-185 3-181-125-181-127 0-125-3-125 177 0 175 2 178 123 178 59 0 89-5 105-16zm638 2c17-13 19-29 22-153 3-126 2-141-16-164-19-22-27-24-110-24-126 0-122-5-122 176 0 141 1 149 22 163 30 21 176 22 204 2zm632-2c21-14 22-22 22-163 0-175 1-174-101-179-142-8-149 0-149 179 0 177 2 179 123 179 59 0 89-5 105-16zm642-4c18-18 20-33 20-159 0-179-7-187-149-179-102 5-101 4-101 179 0 180-1 179 127 179 70 0 86-3 103-20zm628 4c21-14 22-22 22-163 0-181 4-176-122-176-83 0-91 2-110 24-18 23-19 38-16 164 3 124 5 140 22 153 28 20 174 19 204-2zm642-4c18-18 20-33 20-158 0-180 2-177-125-177-128 0-125-4-125 181 0 174 0 174 127 174 70 0 86-3 103-20zm628 4c21-14 22-22 22-163 0-181 3-176-121-176-125 0-124-1-124 176 0 136 1 141 24 160 31 25 165 27 199 3zm642-4c18-18 20-33 20-158 0-180 2-177-125-177s-125-3-125 177c0 176 1 178 125 178 72 0 88-3 105-20zm626 12c27-17 34-56 34-175 0-167-4-172-128-172-126 0-122-5-122 176 0 180-1 179 125 179 44 0 85-4 91-8zm642-8c21-14 22-22 22-163 0-126-3-151-17-162-11-10-45-14-110-14-125 0-123-3-123 177 0 175 2 178 123 178 59 0 89-5 105-16zm642-4c18-18 20-33 20-155 0-132-1-137-26-161-24-24-30-26-108-23-51 3-89 9-99 18-14 11-17 36-17 162 0 180-1 179 127 179 70 0 86-3 103-20zm628 4c21-14 22-22 22-163 0-181 4-176-122-176-125 0-128 4-128 181 0 171 2 174 123 174 59 0 89-5 105-16zm642-4c18-18 20-33 20-158 0-180 2-177-125-177-128 0-125-4-125 181 0 174 0 174 127 174 70 0 86-3 103-20zm628 4c21-14 22-22 22-163 0-181 4-176-122-176-125 0-128 4-128 175 0 114 2 130 21 154s26 26 103 26c58 0 88-5 104-16zm642-4c18-18 20-33 20-158 0-180 2-177-125-177s-125-3-125 177c0 176 1 178 125 178 72 0 88-3 105-20z" fill="#fff" transform="matrix(.1 0 0 -.1 0 378)"/></svg>