<svg height="99.035" viewBox="0 0 99.037 99.035" width="99.037" xmlns="http://www.w3.org/2000/svg"><g fill="#ff6200" transform="translate(263.606 -186.888)"><path d="m-214.087 186.888a49.331 49.331 0 0 1 35.014 14.505 49.339 49.339 0 0 1 14.505 35.013 49.341 49.341 0 0 1 -14.505 35.013 49.334 49.334 0 0 1 -35.014 14.5 49.334 49.334 0 0 1 -35.014-14.5 49.344 49.344 0 0 1 -14.5-35.013 49.342 49.342 0 0 1 14.5-35.013 49.331 49.331 0 0 1 35.014-14.505zm32.272 17.246a45.507 45.507 0 0 0 -32.272-13.381 45.507 45.507 0 0 0 -32.272 13.381 45.4 45.4 0 0 0 -13.379 32.272 45.508 45.508 0 0 0 13.379 32.3 45.483 45.483 0 0 0 32.272 13.353 45.483 45.483 0 0 0 32.272-13.359 45.5 45.5 0 0 0 13.378-32.3 45.391 45.391 0 0 0 -13.378-32.272z"/><path d="m-209.042 232.951c-3.647.055-7.293.055-10.939.055-1.042 0-2.111-.055-3.127 0-.218 0-.547.246-.547.384-.028 2.112-.028 4.222-.028 6.416h8.91a4.5 4.5 0 0 1 -.3 1.068c-1.345 4.059-5.54 6.061-10.064 5.321a9.8 9.8 0 0 1 -8.033-11.681 10.408 10.408 0 0 1 .658-2.276 9.842 9.842 0 0 1 10.968-5.511 9.038 9.038 0 0 1 4.193 2.166l4.909-4.908a2.372 2.372 0 0 1 -.411-.356 16.034 16.034 0 0 0 -13.545-3.7 16.59 16.59 0 0 0 -13.708 13.654 16.49 16.49 0 0 0 .823 8.857 16.876 16.876 0 0 0 17.629 10.611 14.933 14.933 0 0 0 9.679-4.525c3.864-4.112 4.878-9.047 4.249-14.5-.11-.9-.465-1.069-1.316-1.069zm16.588.522h-1.1v-.988c0-1.4.027-2.8 0-4.223 0-.219-.274-.63-.385-.63-1.259-.055-2.549-.055-3.891-.055v5.84h-5.9v1.07c.056 1.042.084 2.111.165 3.153 1.015.055 2.03.109 3.1.109.853.027 1.728 0 2.66 0v5.758c1.455-.027 2.8 0 4.251 0v-5.758h5.757v-4.276z" fill-rule="evenodd"/></g></svg>