<svg height="99.035" viewBox="0 0 99.035 99.035" width="99.035" xmlns="http://www.w3.org/2000/svg"><g fill="#ff6200" transform="translate(379.432 -185.888)"><path d="m-329.914 185.888a49.285 49.285 0 0 1 35.014 14.505 49.334 49.334 0 0 1 14.5 35.013 49.336 49.336 0 0 1 -14.5 35.013 49.289 49.289 0 0 1 -35.014 14.5 49.385 49.385 0 0 1 -35.013-14.5 49.336 49.336 0 0 1 -14.505-35.013 49.335 49.335 0 0 1 14.505-35.013 49.382 49.382 0 0 1 35.013-14.505zm32.3 17.246a45.621 45.621 0 0 0 -32.3-13.381 45.552 45.552 0 0 0 -32.271 13.381 45.5 45.5 0 0 0 -13.38 32.272 45.613 45.613 0 0 0 13.38 32.3 45.528 45.528 0 0 0 32.271 13.353 45.6 45.6 0 0 0 32.3-13.353 45.593 45.593 0 0 0 13.352-32.3 45.48 45.48 0 0 0 -13.352-32.272z"/><path d="m-342.581 235.406a12.7 12.7 0 0 1 12.667-12.7 12.7 12.7 0 0 1 12.7 12.7 12.685 12.685 0 0 1 -12.7 12.695 12.68 12.68 0 0 1 -12.667-12.695zm25.774-24.814h-26.185a11.766 11.766 0 0 0 -11.735 11.736v26.184a11.784 11.784 0 0 0 11.735 11.735h26.185a11.766 11.766 0 0 0 11.735-11.735v-26.184a11.748 11.748 0 0 0 -11.735-11.736zm-26.185 2.934h26.185a8.811 8.811 0 0 1 8.8 8.8v26.184a8.811 8.811 0 0 1 -8.8 8.8h-26.185a8.811 8.811 0 0 1 -8.8-8.8v-26.182a8.811 8.811 0 0 1 8.8-8.8zm28.789 3.7a2.575 2.575 0 0 0 -2.577 2.577 2.575 2.575 0 0 0 2.577 2.578 2.575 2.575 0 0 0 2.578-2.578 2.575 2.575 0 0 0 -2.578-2.577zm.3 18.179a16.013 16.013 0 0 0 -16.013-16.012 16.03 16.03 0 0 0 -16.012 16.012 16.013 16.013 0 0 0 16.012 16.012 16 16 0 0 0 16.016-16.011z" fill-rule="evenodd"/></g></svg>