<svg enable-background="new 0 0 117.2 59.2" viewBox="0 0 117.2 59.2" xmlns="http://www.w3.org/2000/svg"><g fill="#f26322"><path d="m97.5 41.7c-.1 0-1.7.2-1.2.5 0 .6 0 1.2-.1 1.8 0 .3-.2.5 0 .6.1.1.9-.2.5-.4-.1-.1 0-.8 0-1 .1 0 .5-.1.6-.1.3.2.4-.6 0-.4 0 0-.6.1-.6.1v-.7c.2-.1.8.1.8 0 .3 0 .3-.5 0-.4z"/><path d="m100.6 41.5c.1-.1.1-.2.1-.2-.1-.3-.9 0-.6.3 0 .7.2 1.8-.6 2-1.3.4-.4-1.8-.6-1.9.4-.4-1.1-.2-.6.1 0 .5-.1.9 0 1.4.1 1 1 1.1 1.7.6.1.3.8 0 .5-.2 0-.5-.1-1.6.1-2.1z"/><path d="m103 41c0-.1-.1-.2-.2-.2-.5.1-1.1.2-1.6.3-.3 0-.3.6-.1.6s.4-.2.6-.3c0 .6-.1 1.3-.1 1.9 0 .3-.3.3.2.3.1 0 .7-.2.4-.3-.1-.6 0-1.3 0-2h.5s.1.1.2.1c.2-.1.1-.3.1-.4z"/><path d="m105.6 40.7c0-.1.1-.1.1-.2-.1-.2-.9 0-.6.3 0 .7.2 1.8-.6 2-.9.3-.8-1.3-.6-1.9.2-.2-.1-.3-.2-.3-.1 0-.6.1-.3.3.2.2-.1 1.2 0 1.4.1 1 1 1.1 1.7.6 0 .1.5.2.6 0 0-.1 0-.2-.1-.2 0-.5-.3-1.5 0-2z"/><path d="m108.2 42.3c-.2 0-.6-.7-.7-.8.6-.3.6-1.2-.1-1.4-.1 0-1.4.1-1 .4 0 0 0 1.9-.1 2.1-.4.3.7.3.7.1 0-.1 0-.2-.1-.2s0-1.8 0-2c.6-.2.7.6.2.8-.3.1.3.8.4 1 .2.2.4.5.7.3 0 0 .3-.3 0-.3zm-1.4.3c0 .1 0 .1 0 0z"/><path d="m110.2 41.7c-.2 0-.6.6-.9.3 0-.3 0-.6 0-.9.1 0 .5-.1.6-.1.3.2.4-.6 0-.4-.2 0-.4.1-.5.1 0-.2 0-.4 0-.6.3-.1.8.1.9-.1s0-.5-.2-.4c-.1 0-1.6.2-1.2.5 0 .5.2 1.6-.1 2.1 0 0-.1.1-.1.2.1.2 1.3 0 1.5-.1h.1c.1-.1.2-.6-.1-.6z"/><path d="m13.1 58c-.2 0-.7-1.5-.8-1.7-.2-.5-.3-.7-.6-.2s-.5 1.3-.8 1.9c-.1.1-.3.5-.3.5.1.4.8 0 .6-.2.1-.2.2-.5.3-.7l.7-.1c.1.2.2.4.2.6-.4.6 1.3.1.7-.1zm-1.1-1.2c0 .1.1.2.1.3l-.4.1c.1-.2.1-.3.2-.5 0 0 .1.1.1.1z"/><path d="m26 49.5c-.7-.5-1.6-.2-2.3-.1s-1.4.2-2.1.3c-.9.1-1.7.3-2.6.4-1.2.2-2 .9-1.8 2.3 0 .4.2.8.4 1.2.2.3.7.7.8 1.1.2.5-.3.5-.7.6-.9.2-1.8.3-2.7.4v2.1l4.6-.8c.8-.3 1.1-1 1.2-1.8 0-1.2-.7-1.7-1.2-2.6-.3-.6.2-.6.7-.7.4-.1.9-.1 1.3-.2l-.1 5 1.9-.3v-2.3l1.6-.3c1.5-.4 2.5-3.2 1-4.3zm-1.1 2.7c-.3.3-1.1.3-1.5.4v-1.3c.3-.1.9-.3 1.2-.2.5 0 .7.7.3 1.1z"/><path d="m28.6 48.6-1.9 7.4 1.9-.3.4-1.3 1.6-.3.3 1.2 2-.3-1.6-6.8zm.4 4.3.8-2.9.6 2.7z"/><path d="m36 47.4c-2.6.4-4.2 4.2-2.4 6.3 1.1 1.3 3.2.6 4.6.4v-2.1c-1.2.2-3.5 1-3.4-.8 0-1.9 2.1-1.8 3.5-2v-2.1c-.7 0-1.5.1-2.3.3z"/><path d="m40.6 50.8 1.8-.3v-1.3l-1.8.3v-.8l2.8-.4v-2.2l-4.5.8-.1 7.1 4.9-.8.1-2.1-3.3.5z"/><path d="m52.5 45.1c-.7-.5-1.6-.2-2.3-.1s-1.4.2-2.1.3l-.1 7.1 1.9-.3v-2.3l1.6-.3c1.5-.5 2.5-3.3 1-4.4zm-1.1 2.7c-.3.3-1.1.3-1.5.4v-1.4c.3-.1.9-.2 1.2-.1.4 0 .7.7.3 1.1z"/><path d="m57.4 48.1c1.1-.5 1.6-1.5 1.5-2.7-.1-1-.7-1.6-1.7-1.5-1.1.1-2.2.4-3.3.5l-.1 7.1 1.9-.3v-2.3l1.6 2.1 2.1-.3v-2.1l-1.6.3zm-.2-1.3c-.3.3-1.1.3-1.5.4v-1.3c.3-.1.9-.3 1.2-.2.4.1.7.7.3 1.1z"/><path d="m64.2 43.1c-1.9-.8-3.9.6-4.4 2.4-.4 1.4-.5 4 1.2 4.6 1.8.7 3.8-.7 4.3-2.4.4-1.4.5-3.9-1.1-4.6zm-.6 4.1c-.1.7-1 1.4-1.7 1-.6-.4-.5-1.8-.3-2.4s.8-1.2 1.5-1c.8.3.6 1.8.5 2.4z"/><path d="m69 41.9c-2.6.4-4.2 4.2-2.4 6.3 1.1 1.3 3.2.6 4.6.4l.1-3.6-1.6.3v1.4c-.6.1-1.5.3-1.7-.5-.2-.7 0-1.7.6-2 .7-.5 2-.5 2.8-.6v-2.1c-.8.1-1.6.3-2.4.4z"/><path d="m79.1 40.2-1.7 6.8v-1.5l-1.6.3-.4-.6c1.1-.5 1.6-1.5 1.5-2.7-.1-1-.7-1.6-1.7-1.5-1.1.1-2.2.4-3.3.5l-.1 7.1 1.9-.3v-2.3l1.6 2.1 2.1-.3 1.7-.3.4-1.3 1.6-.3.3 1.2 2-.3-1.6-6.8zm-3.8 3.6c-.3.3-1.1.3-1.5.4v-1.3c.3-.1.9-.3 1.2-.2.5.1.7.7.3 1.1zm4.3.7.8-2.9.6 2.7z"/><path d="m90.1 39.7c-.1.8.1 1.5.6 2.2.2.3 1 .9.6 1.2s-2.1.6-2.1.6l.1-5.2-1.7.3-1.1 3.2-1.1-2.8-1.7.3-.1 7.1 1.7-.3.1-3 1 2.8h.1l1.1-3.1-.1 3c1.7-.3 3.3-.6 5-.8.8-.3 1.1-1 1.2-1.8 0-1.2-.7-1.7-1.2-2.6-.3-.6.2-.6.7-.7.4-.1.9-.1 1.3-.2v-2.2c-1.5.1-4.1.2-4.4 2z"/><path d="m55.2 39.2 8.5-1.4 8.4-1.4.2-7.5 7.2 6.2 9.2-1.6 11.4-1.9c3.4-1.1 5.1-3.1 5.2-5.9s-1.5-5.4-4.9-7.8c-1.9-1.2-1.5-2 1.3-2.4l7.3-1.2.2-6.7-14.3 2.4c-3 .5-4.8 2.2-5.4 5.1s.9 5.7 4.5 8.4c2.2 1.3 1.8 2.2-1.2 2.7l-4.5.8-6.5 1-1.7-1.9c1.8-.7 3.2-1.5 4.2-2.4s1.7-1.9 2.1-3.1.4-2.7 0-4.6c-.5-1.2-1.4-2.2-2.6-2.7-1.2-.6-2.7-.8-4.6-.7l-15.1 2.6-.5 21.6-6.9-20.4-11.5 2-7.5 21.8.5-20.7-7.6 1.3-5.3 10.2-4.9-8.5-12.2 2.2-.2 6.7 4.8-.8-.4 15.8 7.6-1.3.2-9.4 4.6 8.6.4-.1 5.1-10.2-.2 9.4 6.9-1.2 8.3-1.4 1.6-4.3 6.9-1.2zm17.3-19.7 5.8-1c.3 0 .6 0 .9.3s.6.7.6 1.6-.2 1.5-.6 1.8-.7.5-1 .5l-5.9 1zm-25.1 12.5 3.5-9.5 2.9 8.4z"/><path d="m114.2 0c-.2 0-.3 0-.5 0l-111.2 18.7c-1.5.3-2.5 1.5-2.5 3v30.4c0 1.7 1.4 3 3 3h.5l12.3-2.1v-2l-12.7 2h-.1c-.5 0-1-.4-1-1v-30.3c0-.5.3-.9.8-1l111.3-18.7h.2c.5 0 1 .4 1 1v30.4c0 .5-.3.9-.8 1l-18.5 2.9v2l18.7-3c1.4-.2 2.5-1.5 2.5-2.9v-30.4c0-1.7-1.3-3-3-3z"/></g></svg>