<?xml version="1.0" encoding="utf-8"?>
<!-- Generator: Adobe Illustrator 23.0.3, SVG Export Plug-In . SVG Version: 6.00 Build 0)  -->
<svg version="1.1" id="Layer_1" xmlns="http://www.w3.org/2000/svg" xmlns:xlink="http://www.w3.org/1999/xlink" x="0px" y="0px"
	 viewBox="0 0 667.2 117.2" style="enable-background:new 0 0 667.2 117.2;" xml:space="preserve">
<style type="text/css">
	.st0{fill:#93D8EF;}
</style>
<g>
	<path class="st0" d="M31,38.2h-5l-3.9-11.2H7.6L4.1,38.2H0L12.7,0h5.5L31,38.2z M21,23.5L15,5.1l-6,18.4H21z"/>
	<path class="st0" d="M54.8,38.2h-4.5V0h4.5V38.2z"/>
	<path class="st0" d="M74.1,39c-4,0-7.1-1.4-9.3-4.3c-2.2-2.9-3.3-6.4-3.3-10.7c0-4.5,1.2-8.1,3.7-10.8c2.5-2.7,5.6-4,9.3-4
		c4,0,7.1,1.4,9.4,4.2c2.3,2.8,3.4,6.4,3.4,10.6c0,4.4-1.2,8-3.7,10.8C81.2,37.6,78,39,74.1,39z M74.5,35.4c2.3,0,4.2-0.9,5.7-2.8
		s2.3-4.7,2.3-8.6c0-3.9-0.8-6.8-2.4-8.5s-3.5-2.6-5.7-2.6c-2.2,0-4.1,0.9-5.7,2.7c-1.5,1.8-2.3,4.6-2.3,8.5c0,4.1,0.8,7,2.3,8.8
		S72.2,35.4,74.5,35.4z"/>
	<path class="st0" d="M116.9,38.2h-4.2V20.1c0-2.6-0.6-4.5-1.7-5.5c-1.2-1.1-2.6-1.6-4.2-1.6c-2.3,0-4.2,0.9-5.8,2.7
		c-1.6,1.8-2.3,4.2-2.3,7.1v15.5h-4.5V9.9h4.2v5.2c2.3-4,5.4-6,9.1-6c2.2,0,4,0.5,5.5,1.6c1.5,1.1,2.6,2.3,3.1,3.7
		c0.6,1.4,0.8,3.8,0.8,7.4V38.2z"/>
	<path class="st0" d="M149.5,5.5V9c-2.1,0-3.4,0.2-4.1,0.7c-0.7,0.5-1.2,1.3-1.4,2.5c1.8,2.1,2.8,4.4,2.8,6.8c0,2.6-1,4.8-3,6.6
		c-2,1.8-4.7,2.8-8.1,2.8c-0.8,0-1.4-0.1-2-0.2c-1-0.2-1.7-0.3-2-0.3c-0.5,0-1.1,0.2-1.9,0.7c-0.7,0.5-1.1,1.1-1.1,1.9
		c0,1.1,0.5,1.8,1.6,2.2c1,0.3,3.5,0.6,7.4,0.6c3.3,0.1,5.7,0.3,7.3,0.7c1.6,0.3,2.9,1.1,4,2.3c1.1,1.2,1.6,2.6,1.6,4.4
		c0,5.4-4.8,8.1-14.5,8.1c-4.6,0-7.9-0.7-10-2c-2.1-1.4-3.2-3.2-3.2-5.4c0-2.7,1.5-4.6,4.4-5.7c-1.9-1.2-2.8-2.7-2.8-4.6
		c0-2.2,1.3-3.9,4-5c-2.5-2-3.7-4.5-3.7-7.5c0-2.8,1.1-5.1,3.2-6.9c2.1-1.8,4.7-2.7,7.8-2.7c2.2,0,4.1,0.4,5.9,1.2
		c0.3-1.8,0.9-3.1,2-3.8c1-0.7,2.6-1.1,4.7-1.1C148.6,5.5,149,5.5,149.5,5.5z M130.4,37.1c-2.1,0.9-3.1,2.2-3.1,3.9
		c0,1.4,0.9,2.6,2.6,3.3c1.7,0.8,3.9,1.2,6.6,1.2c2.5,0,4.7-0.3,6.8-1s3.1-1.8,3.1-3.5c0-0.9-0.3-1.6-0.9-2.2
		c-0.6-0.6-1.4-0.9-2.5-1.1c-1.1-0.1-2.9-0.3-5.5-0.3C134.2,37.4,131.9,37.3,130.4,37.1z M135.8,25.1c1.9,0,3.5-0.6,4.7-1.7
		c1.2-1.1,1.8-2.6,1.8-4.5c0-1.9-0.6-3.4-1.9-4.6c-1.2-1.2-2.8-1.8-4.5-1.8c-1.7,0-3.2,0.6-4.5,1.7c-1.3,1.1-2,2.7-2,4.7
		c0,1.8,0.6,3.3,1.8,4.4C132.3,24.6,133.9,25.1,135.8,25.1z"/>
	<path class="st0" d="M182.4,35.2v3.5c-1.6,0.2-3,0.3-4.1,0.3c-5.6,0-8.4-2.9-8.4-8.6v-17h-5.1V9.9h5.1l0.2-7.1l4.2-0.4v7.5h6.5v3.4
		h-6.5v17.8c0,2.9,1.5,4.4,4.6,4.4C180,35.5,181.1,35.4,182.4,35.2z"/>
	<path class="st0" d="M192,0v4.9h-4.8V0H192z M191.8,9.9v28.3h-4.5V9.9H191.8z"/>
	<path class="st0" d="M239.5,38.2h-4.4V20.6c0-1.8-0.1-3.2-0.4-4.1c-0.3-0.9-0.9-1.7-1.9-2.5c-1-0.8-2.1-1.1-3.3-1.1
		c-1.7,0-3.4,0.8-5,2.3c-1.6,1.5-2.4,3.9-2.4,7v15.9h-4.3V19.6c0-2.5-0.6-4.2-1.8-5.3c-1.2-1-2.5-1.5-3.8-1.5c-1.9,0-3.6,0.8-5,2.4
		c-1.4,1.6-2.1,3.6-2.1,6.1v16.9h-4.3V9.9h3.9v5.4c2.2-4.1,5.1-6.2,8.9-6.2c2.1,0,3.8,0.7,5.3,2c1.4,1.3,2.4,2.9,2.8,4.8
		c2-4.5,5-6.8,9.1-6.8c2,0,3.7,0.6,5.2,1.7c1.5,1.1,2.4,2.4,2.9,3.8c0.4,1.4,0.7,3.4,0.7,6V38.2z"/>
	<path class="st0" d="M267.5,29.8l4.2,0.8c-0.8,2.4-2.2,4.4-4.5,6c-2.2,1.6-4.8,2.4-7.8,2.4c-3.9,0-7.1-1.4-9.6-4.1
		c-2.4-2.7-3.7-6.3-3.7-10.7c0-4.5,1.3-8.1,3.8-10.9s5.7-4.2,9.5-4.2c3.8,0,6.8,1.3,9.1,3.8s3.5,6.4,3.5,11.5h-21
		c0,4.3,0.9,7.2,2.7,8.7c1.8,1.5,3.8,2.2,5.8,2.2C263.4,35.4,266,33.5,267.5,29.8z M267.2,21.2c0-1.6-0.3-3-0.8-4.2
		c-0.5-1.2-1.3-2.3-2.5-3.2c-1.2-0.9-2.6-1.3-4.3-1.3c-2.2,0-4.1,0.8-5.7,2.4c-1.6,1.6-2.4,3.7-2.6,6.3H267.2z"/>
	<path class="st0" d="M316.1,38.2h-4.4c-0.2-0.9-0.3-2.6-0.5-5.1c-2,3.9-5.4,5.9-10.1,5.9c-3.2,0-5.7-0.8-7.5-2.5
		c-1.7-1.7-2.6-3.7-2.6-6.1c0-2.9,1.2-5.2,3.7-7.1c2.5-1.8,6.7-2.8,12.6-2.8c0.8,0,2.1,0,3.8,0.1c0-2.2-0.2-3.9-0.5-4.9
		c-0.4-1-1.1-1.8-2.2-2.4s-2.6-0.9-4.5-0.9c-4.6,0-7.2,1.7-7.9,5.1l-4.1-0.7c1-5.2,5.3-7.8,12.8-7.8c4,0,6.8,0.9,8.5,2.6
		c1.7,1.7,2.5,4.7,2.5,9v12C315.5,34.7,315.7,36.6,316.1,38.2z M311.2,24.1c-1.8-0.1-3.2-0.2-4.2-0.2c-3.5,0-6.3,0.6-8.3,1.7
		c-2,1.1-2.9,2.8-2.9,5c0,1.4,0.5,2.6,1.6,3.5s2.6,1.5,4.6,1.5c2.7,0,4.9-1,6.7-2.9s2.6-4.2,2.6-6.8
		C311.3,25.4,311.2,24.8,311.2,24.1z"/>
	<path class="st0" d="M348.1,5.5V9c-2.1,0-3.4,0.2-4.1,0.7c-0.7,0.5-1.2,1.3-1.4,2.5c1.8,2.1,2.8,4.4,2.8,6.8c0,2.6-1,4.8-3,6.6
		c-2,1.8-4.7,2.8-8.1,2.8c-0.8,0-1.4-0.1-2-0.2c-1-0.2-1.7-0.3-2-0.3c-0.5,0-1.1,0.2-1.9,0.7c-0.7,0.5-1.1,1.1-1.1,1.9
		c0,1.1,0.5,1.8,1.6,2.2c1,0.3,3.5,0.6,7.4,0.6c3.3,0.1,5.7,0.3,7.3,0.7c1.6,0.3,2.9,1.1,4,2.3c1.1,1.2,1.6,2.6,1.6,4.4
		c0,5.4-4.8,8.1-14.5,8.1c-4.6,0-7.9-0.7-10-2c-2.1-1.4-3.2-3.2-3.2-5.4c0-2.7,1.5-4.6,4.4-5.7c-1.9-1.2-2.8-2.7-2.8-4.6
		c0-2.2,1.3-3.9,4-5c-2.5-2-3.7-4.5-3.7-7.5c0-2.8,1.1-5.1,3.2-6.9c2.1-1.8,4.7-2.7,7.8-2.7c2.2,0,4.1,0.4,5.9,1.2
		c0.3-1.8,0.9-3.1,2-3.8c1-0.7,2.6-1.1,4.7-1.1C347.2,5.5,347.6,5.5,348.1,5.5z M329,37.1c-2.1,0.9-3.1,2.2-3.1,3.9
		c0,1.4,0.9,2.6,2.6,3.3c1.7,0.8,3.9,1.2,6.6,1.2c2.5,0,4.7-0.3,6.8-1s3.1-1.8,3.1-3.5c0-0.9-0.3-1.6-0.9-2.2
		c-0.6-0.6-1.4-0.9-2.5-1.1s-2.9-0.3-5.5-0.3C332.8,37.4,330.5,37.3,329,37.1z M334.4,25.1c1.9,0,3.5-0.6,4.7-1.7
		c1.2-1.1,1.8-2.6,1.8-4.5c0-1.9-0.6-3.4-1.9-4.6c-1.2-1.2-2.8-1.8-4.5-1.8c-1.7,0-3.2,0.6-4.5,1.7c-1.3,1.1-2,2.7-2,4.7
		c0,1.8,0.6,3.3,1.8,4.4C330.9,24.6,332.4,25.1,334.4,25.1z"/>
	<path class="st0" d="M363.6,39c-4,0-7.1-1.4-9.3-4.3c-2.2-2.9-3.3-6.4-3.3-10.7c0-4.5,1.2-8.1,3.7-10.8c2.5-2.7,5.6-4,9.3-4
		c4,0,7.1,1.4,9.4,4.2s3.4,6.4,3.4,10.6c0,4.4-1.2,8-3.7,10.8S367.5,39,363.6,39z M364,35.4c2.3,0,4.2-0.9,5.7-2.8s2.3-4.7,2.3-8.6
		c0-3.9-0.8-6.8-2.4-8.5s-3.5-2.6-5.7-2.6c-2.2,0-4.1,0.9-5.7,2.7c-1.5,1.8-2.3,4.6-2.3,8.5c0,4.1,0.8,7,2.3,8.8
		C359.8,34.5,361.7,35.4,364,35.4z"/>
	<path class="st0" d="M389.6,31.8v5.7l-4.3,7.8h-2.4l3.4-7.2h-2.9v-6.4H389.6z"/>
	<path class="st0" d="M417.6,0v4.9h-4.8V0H417.6z M417.5,9.9v28.3H413V9.9H417.5z"/>
	<path class="st0" d="M449.2,38.2H445V20.1c0-2.6-0.6-4.5-1.7-5.5c-1.2-1.1-2.6-1.6-4.2-1.6c-2.3,0-4.2,0.9-5.8,2.7
		c-1.6,1.8-2.3,4.2-2.3,7.1v15.5h-4.5V9.9h4.2v5.2c2.3-4,5.4-6,9.1-6c2.2,0,4,0.5,5.5,1.6c1.5,1.1,2.6,2.3,3.1,3.7
		c0.6,1.4,0.8,3.8,0.8,7.4V38.2z"/>
	<path class="st0" d="M495.4,38.2h-4.4c-0.2-0.9-0.3-2.6-0.5-5.1c-2,3.9-5.4,5.9-10.1,5.9c-3.2,0-5.7-0.8-7.5-2.5
		c-1.7-1.7-2.6-3.7-2.6-6.1c0-2.9,1.2-5.2,3.7-7.1c2.5-1.8,6.7-2.8,12.6-2.8c0.8,0,2.1,0,3.8,0.1c0-2.2-0.2-3.9-0.5-4.9
		c-0.4-1-1.1-1.8-2.2-2.4s-2.6-0.9-4.5-0.9c-4.6,0-7.2,1.7-7.9,5.1L471,17c1-5.2,5.3-7.8,12.8-7.8c4,0,6.8,0.9,8.5,2.6
		c1.7,1.7,2.5,4.7,2.5,9v12C494.8,34.7,495,36.6,495.4,38.2z M490.4,24.1c-1.8-0.1-3.2-0.2-4.2-0.2c-3.5,0-6.3,0.6-8.3,1.7
		c-2,1.1-2.9,2.8-2.9,5c0,1.4,0.5,2.6,1.6,3.5s2.6,1.5,4.6,1.5c2.7,0,4.9-1,6.7-2.9s2.6-4.2,2.6-6.8
		C490.5,25.4,490.5,24.8,490.4,24.1z"/>
	<path class="st0" d="M542,5.5V9c-2.1,0-3.4,0.2-4.1,0.7c-0.7,0.5-1.2,1.3-1.4,2.5c1.8,2.1,2.8,4.4,2.8,6.8c0,2.6-1,4.8-3,6.6
		c-2,1.8-4.7,2.8-8.1,2.8c-0.8,0-1.4-0.1-2-0.2c-1-0.2-1.7-0.3-2-0.3c-0.5,0-1.1,0.2-1.9,0.7c-0.7,0.5-1.1,1.1-1.1,1.9
		c0,1.1,0.5,1.8,1.6,2.2c1,0.3,3.5,0.6,7.4,0.6c3.3,0.1,5.7,0.3,7.3,0.7c1.6,0.3,2.9,1.1,4,2.3c1.1,1.2,1.6,2.6,1.6,4.4
		c0,5.4-4.8,8.1-14.5,8.1c-4.6,0-7.9-0.7-10-2c-2.1-1.4-3.2-3.2-3.2-5.4c0-2.7,1.5-4.6,4.4-5.7c-1.9-1.2-2.8-2.7-2.8-4.6
		c0-2.2,1.3-3.9,4-5c-2.5-2-3.7-4.5-3.7-7.5c0-2.8,1.1-5.1,3.2-6.9c2.1-1.8,4.7-2.7,7.8-2.7c2.2,0,4.1,0.4,5.9,1.2
		c0.3-1.8,0.9-3.1,2-3.8c1-0.7,2.6-1.1,4.7-1.1C541.1,5.5,541.4,5.5,542,5.5z M522.9,37.1c-2.1,0.9-3.1,2.2-3.1,3.9
		c0,1.4,0.9,2.6,2.6,3.3c1.7,0.8,3.9,1.2,6.6,1.2c2.5,0,4.7-0.3,6.8-1s3.1-1.8,3.1-3.5c0-0.9-0.3-1.6-0.9-2.2
		c-0.6-0.6-1.4-0.9-2.5-1.1s-2.9-0.3-5.5-0.3C526.7,37.4,524.4,37.3,522.9,37.1z M528.2,25.1c1.9,0,3.5-0.6,4.7-1.7
		c1.2-1.1,1.8-2.6,1.8-4.5c0-1.9-0.6-3.4-1.9-4.6c-1.2-1.2-2.8-1.8-4.5-1.8c-1.7,0-3.2,0.6-4.5,1.7c-1.3,1.1-2,2.7-2,4.7
		c0,1.8,0.6,3.3,1.8,4.4C524.8,24.6,526.3,25.1,528.2,25.1z"/>
	<path class="st0" d="M569.7,38.2h-4.4c-0.2-0.9-0.3-2.6-0.5-5.1c-2,3.9-5.4,5.9-10.1,5.9c-3.2,0-5.7-0.8-7.5-2.5
		c-1.7-1.7-2.6-3.7-2.6-6.1c0-2.9,1.2-5.2,3.7-7.1c2.5-1.8,6.7-2.8,12.6-2.8c0.8,0,2.1,0,3.8,0.1c0-2.2-0.2-3.9-0.5-4.9
		c-0.4-1-1.1-1.8-2.2-2.4s-2.6-0.9-4.5-0.9c-4.6,0-7.2,1.7-7.9,5.1l-4.1-0.7c1-5.2,5.3-7.8,12.8-7.8c4,0,6.8,0.9,8.5,2.6
		c1.7,1.7,2.5,4.7,2.5,9v12C569.1,34.7,569.3,36.6,569.7,38.2z M564.8,24.1c-1.8-0.1-3.2-0.2-4.2-0.2c-3.5,0-6.3,0.6-8.3,1.7
		c-2,1.1-2.9,2.8-2.9,5c0,1.4,0.5,2.6,1.6,3.5s2.6,1.5,4.6,1.5c2.7,0,4.9-1,6.7-2.9s2.6-4.2,2.6-6.8
		C564.9,25.4,564.8,24.8,564.8,24.1z"/>
	<path class="st0" d="M582.6,38.2h-4.5V0h4.5V38.2z"/>
	<path class="st0" d="M614.2,38.2h-4.4c-0.2-0.9-0.3-2.6-0.5-5.1c-2,3.9-5.4,5.9-10.1,5.9c-3.2,0-5.7-0.8-7.5-2.5
		c-1.7-1.7-2.6-3.7-2.6-6.1c0-2.9,1.2-5.2,3.7-7.1c2.5-1.8,6.7-2.8,12.6-2.8c0.8,0,2.1,0,3.8,0.1c0-2.2-0.2-3.9-0.5-4.9
		c-0.4-1-1.1-1.8-2.2-2.4s-2.6-0.9-4.5-0.9c-4.6,0-7.2,1.7-7.9,5.1l-4.1-0.7c1-5.2,5.3-7.8,12.8-7.8c4,0,6.8,0.9,8.5,2.6
		c1.7,1.7,2.5,4.7,2.5,9v12C613.6,34.7,613.8,36.6,614.2,38.2z M609.2,24.1c-1.8-0.1-3.2-0.2-4.2-0.2c-3.5,0-6.3,0.6-8.3,1.7
		c-2,1.1-2.9,2.8-2.9,5c0,1.4,0.5,2.6,1.6,3.5s2.6,1.5,4.6,1.5c2.7,0,4.9-1,6.7-2.9s2.6-4.2,2.6-6.8
		C609.3,25.4,609.3,24.8,609.2,24.1z"/>
	<path class="st0" d="M642.7,38.2h-5.2l-7.3-11.5l-7.5,11.5h-4.4l9.7-14.7l-8.8-13.6h5.2l6.1,9.6l6.3-9.6h4.3l-8.4,12.7L642.7,38.2z
		"/>
	<path class="st0" d="M667.2,9.9l-11.6,31.6c-1.7,4.6-4.4,6.8-8,6.8c-1.2,0-2.5-0.2-3.9-0.6v-3.4c1.2,0.3,2.2,0.4,3,0.4
		c1.4,0,2.6-0.4,3.6-1.2c1-0.8,1.9-2.8,2.9-5.9l-10-27.7h4.6l7.8,21.3l7.9-21.3H667.2z"/>
	<path class="st0" d="M16.3,78.8v3.4H9.4V107H4.9V82.2H0v-3.4h4.9c0.1-4.5,1-7.5,2.7-8.8c1.7-1.3,3.8-2,6.2-2c1.2,0,2.6,0.1,4.1,0.4
		v3.5c-1-0.2-1.9-0.4-2.8-0.4c-2,0-3.4,0.4-4.4,1.3s-1.4,2.4-1.4,4.8v1.1H16.3z"/>
	<path class="st0" d="M43.9,107h-4.4c-0.2-0.9-0.3-2.6-0.5-5.1c-2,3.9-5.4,5.9-10.1,5.9c-3.2,0-5.7-0.8-7.5-2.5
		c-1.7-1.7-2.6-3.7-2.6-6.1c0-2.9,1.2-5.2,3.7-7.1s6.7-2.8,12.6-2.8c0.8,0,2.1,0,3.8,0.1c0-2.2-0.2-3.9-0.5-4.9
		c-0.4-1-1.1-1.8-2.2-2.4c-1.1-0.6-2.6-0.9-4.5-0.9c-4.6,0-7.2,1.7-7.9,5.1l-4.1-0.7c1-5.2,5.3-7.8,12.8-7.8c4,0,6.8,0.9,8.5,2.6
		c1.7,1.7,2.5,4.7,2.5,9v12C43.3,103.6,43.5,105.4,43.9,107z M39,92.9c-1.8-0.1-3.2-0.2-4.2-0.2c-3.5,0-6.3,0.6-8.3,1.7
		c-2,1.1-2.9,2.8-2.9,5c0,1.4,0.5,2.6,1.6,3.5c1.1,1,2.6,1.5,4.6,1.5c2.7,0,4.9-1,6.7-2.9c1.7-1.9,2.6-4.2,2.6-6.8
		C39.1,94.2,39,93.6,39,92.9z"/>
	<path class="st0" d="M56.8,107h-4.5V78.8h3.9v6.6c1.4-3.1,2.8-5.1,4.2-6.1c1.4-0.9,2.8-1.4,4.3-1.4c0.5,0,1,0,1.8,0.1v4.2h-0.9
		c-2.5,0-4.5,0.9-6.2,2.7c-1.6,1.8-2.5,4.2-2.6,7.1V107z"/>
	<path class="st0" d="M74.4,100.7v5.7l-4.3,7.8h-2.4l3.4-7.2h-2.9v-6.4H74.4z"/>
	<path class="st0" d="M109.7,78.8v3.4h-6.9V107h-4.5V82.2h-4.9v-3.4h4.9c0.1-4.5,1-7.5,2.7-8.8c1.7-1.3,3.8-2,6.2-2
		c1.2,0,2.6,0.1,4.1,0.4v3.5c-1-0.2-1.9-0.4-2.8-0.4c-2,0-3.4,0.4-4.4,1.3s-1.4,2.4-1.4,4.8v1.1H109.7z"/>
	<path class="st0" d="M137.3,107h-4.4c-0.2-0.9-0.3-2.6-0.5-5.1c-2,3.9-5.4,5.9-10.1,5.9c-3.2,0-5.7-0.8-7.5-2.5
		c-1.7-1.7-2.6-3.7-2.6-6.1c0-2.9,1.2-5.2,3.7-7.1s6.7-2.8,12.6-2.8c0.8,0,2.1,0,3.8,0.1c0-2.2-0.2-3.9-0.5-4.9
		c-0.4-1-1.1-1.8-2.2-2.4c-1.1-0.6-2.6-0.9-4.5-0.9c-4.6,0-7.2,1.7-7.9,5.1l-4.1-0.7c1-5.2,5.3-7.8,12.8-7.8c4,0,6.8,0.9,8.5,2.6
		c1.7,1.7,2.5,4.7,2.5,9v12C136.7,103.6,136.9,105.4,137.3,107z M132.4,92.9c-1.8-0.1-3.2-0.2-4.2-0.2c-3.5,0-6.3,0.6-8.3,1.7
		c-2,1.1-2.9,2.8-2.9,5c0,1.4,0.5,2.6,1.6,3.5c1.1,1,2.6,1.5,4.6,1.5c2.7,0,4.9-1,6.7-2.9c1.7-1.9,2.6-4.2,2.6-6.8
		C132.5,94.2,132.4,93.6,132.4,92.9z"/>
	<path class="st0" d="M150.2,107h-4.5V78.8h3.9v6.6c1.4-3.1,2.8-5.1,4.2-6.1c1.4-0.9,2.8-1.4,4.3-1.4c0.5,0,1,0,1.8,0.1v4.2H159
		c-2.5,0-4.5,0.9-6.2,2.7c-1.6,1.8-2.5,4.2-2.6,7.1V107z"/>
	<path class="st0" d="M202.2,107h-4.4c-0.2-0.9-0.3-2.6-0.5-5.1c-2,3.9-5.4,5.9-10.1,5.9c-3.2,0-5.7-0.8-7.5-2.5
		c-1.7-1.7-2.6-3.7-2.6-6.1c0-2.9,1.2-5.2,3.7-7.1s6.7-2.8,12.6-2.8c0.8,0,2.1,0,3.8,0.1c0-2.2-0.2-3.9-0.5-4.9
		c-0.4-1-1.1-1.8-2.2-2.4c-1.1-0.6-2.6-0.9-4.5-0.9c-4.6,0-7.2,1.7-7.9,5.1l-4.1-0.7c1-5.2,5.3-7.8,12.8-7.8c4,0,6.8,0.9,8.5,2.6
		c1.7,1.7,2.5,4.7,2.5,9v12C201.6,103.6,201.8,105.4,202.2,107z M197.3,92.9c-1.8-0.1-3.2-0.2-4.2-0.2c-3.5,0-6.3,0.6-8.3,1.7
		c-2,1.1-2.9,2.8-2.9,5c0,1.4,0.5,2.6,1.6,3.5c1.1,1,2.6,1.5,4.6,1.5c2.7,0,4.9-1,6.7-2.9c1.7-1.9,2.6-4.2,2.6-6.8
		C197.4,94.2,197.3,93.6,197.3,92.9z"/>
	<path class="st0" d="M242.7,78.8l-8.3,28.3h-3.6l-6.4-21l-5.9,21h-3.7L206,78.8h4.5l6.3,21.1l6-21.1h3.3l6.5,21.2l6.5-21.2H242.7z"
		/>
	<path class="st0" d="M270.2,107h-4.4c-0.2-0.9-0.3-2.6-0.5-5.1c-2,3.9-5.4,5.9-10.1,5.9c-3.2,0-5.7-0.8-7.5-2.5s-2.6-3.7-2.6-6.1
		c0-2.9,1.2-5.2,3.7-7.1s6.7-2.8,12.6-2.8c0.8,0,2.1,0,3.8,0.1c0-2.2-0.2-3.9-0.5-4.9c-0.4-1-1.1-1.8-2.2-2.4
		c-1.1-0.6-2.7-0.9-4.5-0.9c-4.6,0-7.2,1.7-7.9,5.1l-4.1-0.7c1-5.2,5.3-7.8,12.8-7.8c4,0,6.8,0.9,8.5,2.6s2.5,4.7,2.5,9v12
		C269.6,103.6,269.8,105.4,270.2,107z M265.3,92.9c-1.8-0.1-3.2-0.2-4.2-0.2c-3.5,0-6.3,0.6-8.3,1.7s-2.9,2.8-2.9,5
		c0,1.4,0.5,2.6,1.6,3.5c1.1,1,2.6,1.5,4.6,1.5c2.7,0,4.9-1,6.7-2.9c1.7-1.9,2.6-4.2,2.6-6.8C265.4,94.2,265.4,93.6,265.3,92.9z"/>
	<path class="st0" d="M297.2,78.8l-11.6,31.6c-1.7,4.6-4.4,6.8-8,6.8c-1.2,0-2.5-0.2-3.9-0.6v-3.4c1.2,0.3,2.2,0.4,3,0.4
		c1.4,0,2.6-0.4,3.6-1.2c1-0.8,1.9-2.8,2.9-5.9l-10-27.7h4.6l7.8,21.3l7.9-21.3H297.2z"/>
	<path class="st0" d="M305.3,100.8v6.3h-6.4v-6.3H305.3z"/>
	<path class="st0" d="M319.9,100.8v6.3h-6.4v-6.3H319.9z"/>
	<path class="st0" d="M334.6,100.8v6.3h-6.4v-6.3H334.6z"/>
</g>
</svg>
