<svg height="235.879" viewBox="0 0 285.249 235.879" width="285.249" xmlns="http://www.w3.org/2000/svg"><g fill="#fff"><path d="m7427.547 8145.339c-.721 1.633-1.46 3.255-2.158 4.9a122.87 122.87 0 0 1 -19.7 31.146 204.788 204.788 0 0 1 -19.321 19.822c-.762.688-1.5 1.406-2.331 2.192 11.9 28.687 12.773 57.675 1.943 86.741-8.812 23.654-24 42.47-44.853 56.716-41.236 28.175-100.768 28.437-144.169-9.875-3.452 3.045-6.978 6.063-10.4 9.2-3.35 3.073-6.589 6.267-10.109 9.629a35.258 35.258 0 0 1 .08-5.615 5.481 5.481 0 0 1 1.789-2.693c4.3-4 8.668-7.912 13.011-11.859.7-.633 1.376-1.287 2.164-2.025a120.076 120.076 0 0 1 -32.264-54.942l-13.311 7.175-5.628-2.052 17.776-9.885c-6.017-31.283-1.392-60.65 15.6-87.717a114.114 114.114 0 0 1 53.3-45.459c26.559-11.206 53.815-12.771 81.358-3.962 27.391 8.762 48.694 25.7 64.619 49.626a9.672 9.672 0 0 0 1.264-.547c12.982-8.1 25.411-16.933 36.6-27.42a81.516 81.516 0 0 0 10.3-11.594c.808-1.112 1.666-2.189 2.609-3.425l1.822.894zm-248.616 204.482.491-.518 2.661-1.976.531-.53.483-.547.514-.519.516-.521.515-.52.485-.549q1.572-1.273 3.147-2.543l.518-.525.514-.522.518-.518.516-.519q1.816-1.548 3.635-3.095l.518-.521.062-.033c.09-.205.031-.069-.03.065l-.518.52-3.623 3.1-.516.519c-.173.175-.346.347-.518.518s-.345.349-.518.522l-.52.52q-1.564 1.279-3.131 2.556l-.494.543-.516.522-.519.519-.514.52-.478.555-.521.531-2.658 1.979-.517.509-.061.079zm-30.506-66.751.146-.2-.117.227-.119.076zm175.564-30.538-.562-.486c-.613-2.187-.613-2.187-2.32-2.726l2.362 2.681.573.469.488 1.082a10.109 10.109 0 0 0 .294 1.5c1.371 3.849.342 7.175-2.39 9.969a22.182 22.182 0 0 1 -14.175 6.734 31.674 31.674 0 0 1 -14.894-2.059l-5.247 3.9c-.228-.976-.372-1.6-.566-2.43l-20.821 13.581c4.543 3.929 9.538 6.815 13.146 11.168.129 3.176-1.761 4.595-4.537 3.455a7.658 7.658 0 0 1 -2.42-1.458c-2.164-2.092-4.276-4.243-6.312-6.462-1.208-1.317-2.232-2.8-3.472-4.382-21.97 14.984-43.046 30.794-63.491 47.525 34.648 32.623 96.54 42.6 144.82 5.957 49.483-37.553 53.953-98.211 36.845-134.513l-27.526 21.644h7.449c.383.917.772 1.765 1.1 2.635q6.019 16.228 12.025 32.456c1.025 2.761 1.715 5.7 4.533 8.01-8.6-.01-16.627.012-24.988-.015l3.211-4.18c-.581-2.013-1.1-3.809-1.609-5.58h-14.4c-.274 1.682-.838 3.295-.707 4.849.135 1.606.945 3.157 1.533 4.949h-7.136c.246.909.4 1.566.6 2.212a91.439 91.439 0 0 1 3.915 18.676c.474 5.385.308 10.684-1.808 15.766a13.546 13.546 0 0 1 -9.643 8.243 22.94 22.94 0 0 1 -8.736.361 64.468 64.468 0 0 1 -15.855-4.48 9.027 9.027 0 0 1 -1.214-.719 2.049 2.049 0 0 1 1.51-.014c2.039.681 4.063 1.413 6.106 2.078a33.319 33.319 0 0 0 14.261 1.715c5.5-.636 9.59-3.391 11.709-8.532a26.888 26.888 0 0 0 1.721-7.243 45.92 45.92 0 0 0 -1.242-15.395 80.907 80.907 0 0 0 -3.811-12.616l-3.589-.272 2.631-2.48c-2.125-5-4.07-9.948-6.869-14.5zm-164.179 24.351-1.033.521-1.031.523-1.035.523-1.021.524-1.075.489-1.042.515-1.443 1.12-1.132.459-1 .5-.2.15.143-.206 1.005-.507 1.131-.457q.726-.56 1.449-1.119l1.05-.508c.358-.161.716-.325 1.074-.488l1.021-.525 1.048-.5 1.047-.506 1.039-.517.73-.173-.183-.311zm197.831-62.105a7.082 7.082 0 0 0 -1.194.419 248.793 248.793 0 0 1 -34.229 15.728 11.516 11.516 0 0 0 -1.4.768v5.966c-1.765-.98-3.283-1.823-4.8-2.667l-.24.31c1.54 2.3 3.08 4.6 4.643 6.938 6.171-4.28 12.045-8.357 17.92-12.434.738-.512 1.715-.847 1.542-1.766a30.758 30.758 0 0 0 3.377-1.944c4.467-3.381 8.885-6.827 13.308-10.266a9.387 9.387 0 0 0 1.028-1.1l.162-.111zm-135.209 93.173.545-.549a6.146 6.146 0 0 0 .883-.492c10.827-8.572 22.069-16.57 33.577-24.2.559-.369 1.075-.8 1.7-1.279-5.242-6.915-10.4-13.715-15.678-20.68-1.337 3.258-1.3 3.635.676 9.312h-13.335c1.242-1.093 2.23-1.885 3.125-2.77a7.264 7.264 0 0 0 1.96-2.349c1.1-3.131 1.969-6.339 3.044-9.912-6.863 1.716-13.261 3.316-19.546 4.887-1.427 4.31 1.086 7.166 3.69 10.25h-18.5c-1.1-1.779-2.133-3.455-3.188-5.167a6.87 6.87 0 0 0 -1.33.1c-3.039.874-6.068 1.78-9.24 2.717l1 1.926c-1.25 0-2.274.048-3.294-.01a17.781 17.781 0 0 0 -7.579 1.272c-4.332 1.688-8.719 3.236-13.066 4.884-1.182.45-2.308 1.046-3.568 1.622 5.476 21.088 16.123 38.854 31.568 54 8.434-8.419 17.448-16.047 26.557-23.563zm10.781-63.848c-1.258-2.286-2.405-4.3-3.491-6.355-4.981-9.4-9.031-19.151-11.18-29.626a62.133 62.133 0 0 1 -1.274-16.969 24.54 24.54 0 0 1 3.477-11.253 14.711 14.711 0 0 1 8.852-6.692c4.552-1.277 9.043-.77 13.523.373 8.38 2.138 15.872 6.183 23.035 10.864 13.623 8.9 25.157 20.124 35.633 32.49.825.973 1.66 1.937 2.429 2.831 23.545-8.615 60.486-25.845 67.754-31.577-25.29-41.742-84.249-69.395-142.192-44.347-58.312 25.208-76.768 86.042-66.5 128.578l18.729-9.37v-31.55l-3.524-4.728h18.7l14.56 24.646 1.2-.778c0-5.753 0-11.357 0-16.961a6.177 6.177 0 0 0 -1.615-3.985 4.994 4.994 0 0 1 -1.59-2.682c4.152.066 8.132-.067 12.473.074a6.491 6.491 0 0 1 -.818 1.225c-2.037 1.614-2.448 3.774-2.391 6.237.1 4.138 0 8.282.008 12.423a17.24 17.24 0 0 0 .193 1.782c4.707-1.564 9.187-3.053 14.01-4.653zm12.008-12.226c-1.187-1.544-2.319-3.019-3.608-4.694h21.861l2.556 6.263 36-12.628c-1.568-1.781-2.858-3.272-4.174-4.739-9.41-10.492-19.477-20.265-31.062-28.379a75.988 75.988 0 0 0 -21.292-10.911 29.911 29.911 0 0 0 -11.473-1.371c-5.146.45-9.163 2.729-11.722 7.363a19.919 19.919 0 0 0 -2.4 8.106 52.764 52.764 0 0 0 1.385 16.928c2.957 12.138 7.88 23.48 13.762 34.443a7.614 7.614 0 0 0 .833 1.036l7.033-2.418c.787-3.069 1.51-5.898 2.302-8.999zm135.372-28.191a98.509 98.509 0 0 0 -7.171-13.6 296.533 296.533 0 0 1 -33.3 17.035c-11.316 5.007-22.727 9.8-34.173 14.72.218.326.434.694.692 1.029 1.211 1.565 2.434 3.123 3.574 4.582 5.563 1.741 7.032 1.676 10.5-.5l.379 2.1c17.524-6.636 34.256-14.64 49.926-25.209l1.257 1.926-26.933 21.7c2.615.4 4.626.1 6.551-1.416 3.723-2.933 7.663-5.588 11.4-8.509 5.768-4.514 11.435-9.15 17.299-13.858zm2.489-2.588c15.161-12 36.025-38.378 38.884-49.071-13.117 14.691-29.118 25.861-45.669 36.386 2.324 4.343 4.548 8.501 6.786 12.687zm-111.993 45.87c1.07 4.615 6.94 19.523 8.3 21.085l8.23-5.407.224-3.256 2.458 1.594c3.16-1.969 6.336-3.946 9.348-5.824-2.7-1.527-5.433-2.807-7.865-4.514-2.627-1.846-3.693-4.841-4.562-8.116zm-1-2 16.689-4.583a3.956 3.956 0 0 0 .385-.644 15.213 15.213 0 0 0 .376-1.506c.784-4.346 3.405-7.229 7.248-9.152a19.841 19.841 0 0 1 8.756-1.942c1.055-.017 2.109-.038 3.619-.065-1.477-1.795-2.606-3.167-3.769-4.581l-36.71 12.991zm71.661-9.146-17.775 11.962 9.517 18.906c3.102-10.414 5.838-20.536 8.256-30.871zm-81.249 47.217c-8.169 5.765-16.2 11.286-24.071 17.017a353.383 353.383 0 0 0 -37.639 31.578 14.466 14.466 0 0 0 -1.082 1.311c20.81-16.79 42.249-32.535 64.315-47.592-.55-.834-.924-1.394-1.524-2.317zm-4.358-12.813c3.534-4.895 3.617-5.66 1.207-9.84h-10.592c5.191 6.535 10.2 12.841 15.281 19.233a148.9 148.9 0 0 0 13.259-9.394zm-21.817-24.2-15.1 5.072a20.167 20.167 0 0 0 .064 6.626l19.223-4.835c-1.471-2.403-2.763-4.524-4.19-6.866zm78.362-11.593-11.722 3.966c4.7 3.561 10.2 4 14.57 6.848l3.138-2.043c-2.074-3.039-3.966-5.804-5.989-8.773zm34.923 4.986c-1.71 5.523-3.246 10.488-4.854 15.684 1.992 0 3.7.012 5.413 0 1.748-.016 3.5-.059 5.528-.1-2.046-5.232-3.942-10.087-6.09-15.586zm-150.973 17.514c-2.906-4.836-5.456-9.526-8.572-14.331v17.786zm68.478 26.295c7.674-5 15.155-9.872 22.558-14.692a13.979 13.979 0 0 0 .106-1.516c-.021-.47-.129-.935-.246-1.712l-24.113 16zm76.4-52.974c-6.7 4.637-13.272 9.182-19.961 13.81.43.664.783 1.21 1.234 1.91l20.1-13.53zm-31.177 29.583-2.421-1.708c-3.464 2.237-6.721 4.343-10.257 6.63a16.237 16.237 0 0 0 10.316-.28c2.452-.919 2.79-1.533 2.357-4.644zm-121.361 6.273 11.156-3.325-2.406-4-9.742 4.076zm56.962-15.044c2.774-.688 5.146-1.277 7.856-1.948l-3.333-8.49c-.66.405-1.229.545-1.336.849-1.068 3.048-2.054 6.123-3.192 9.587zm49.023 12.811c3.5-2.34 7.072-4.307 10.621-6.959l-3.163-.947-10.251 6.448zm-131.251 10.795.268.515c4.364-1.706 8.747-3.367 13.079-5.149a11.184 11.184 0 0 0 2.991-1.974 13.977 13.977 0 0 0 1.737-2.246l-.362-.312zm81.352-20.843.13.732c1.71 0 3.42.011 5.131 0 1.75-.015 3.5-.054 5.521-.086l-1.2-3.318c-3.32.989-6.619 1.273-9.587 2.67zm-2.89-10.3-5.449 1.709c1.173 1.886 2.171 3.492 3.429 5.52.726-2.619 1.311-4.711 2.015-7.23zm67.219-10.231c-5.127-.692-6.985-.05-8.385 2.752zm8.158 13.245 2.162 1.407 1.19-.927c-.393-.61-.745-1.156-1.165-1.808z" transform="translate(-7142.298 -8131.101)"/><path d="m7385.708 8335.866c.712.334 1.394.653 2.175 1.018l-2.127 1.037-.823 2.23c-.223-.184-.464-.282-.52-.445-.188-.549-.31-1.12-.479-1.767l-2.589-1 2.38-.921 1.028-2.433z" transform="translate(-7173.148 -8157.232)"/><path d="m7246.305 8366.7-.9-2.051-2.359-.953 2.3-.965 1.09-2.608.8 2.5 2.689 1.147c-2.042.16-3.199.963-3.62 2.93z" transform="translate(-7155.301 -8160.658)"/><path d="m7393.459 8307.729 1.978-.774 1.1-2.2c.321.7.638 1.381.965 2.091l2.116.986c-.708.339-1.385.663-2.136 1.024-.286.777-.575 1.562-.882 2.4a7.782 7.782 0 0 0 -.976-2.16 9.288 9.288 0 0 0 -2.165-1.367z" transform="translate(-7174.712 -8153.511)"/><path d="m7384.225 8309.471-1.5 1.4-1.672-1.51c.431-.535.776-.961 1.267-1.567z" transform="translate(-7173.111 -8153.904)"/><path d="m7258 8338.616-1.772 1.744-1.545-1.664 1.5-1.8z" transform="translate(-7156.801 -8157.661)"/><path d="m7363.667 8317.941.661 1.742c-.806.9-1.621 1.17-2.155.123s.241-1.511 1.494-1.865z" transform="translate(-7170.652 -8155.214)"/><path d="m7400.329 8316.288 1.72-.146c.679 1.22.287 1.824-.557 2.24-1.272-.17-1.427-.882-1.163-2.094z" transform="translate(-7175.584 -8154.982)"/><path d="m7363.19 8311.346c-.367-.5-.986-.98-.977-1.442s.633-.939 1-1.42c1.487 1.031 1.499 1.831-.023 2.862z" transform="translate(-7170.68 -8153.993)"/><path d="m7394.742 8320.931c-1.3-.741-1.419-1.377-.309-2.213 1.136.482 1.392 1.082.309 2.213z" transform="translate(-7174.74 -8155.314)"/><path d="m7359.106 8361.624c-1.4.649-1.4.649-2.34-.222l1.026-1.178z" transform="translate(-7169.976 -8160.671)"/><path d="m7257.907 8350c1.49.913 1.48 1.556.146 2.325l-1.009-.909z" transform="translate(-7157.106 -8159.351)"/><path d="m7242.92 8346.913 1.172 1.312c-.165.319-.223.6-.393.73-.855.677-1.3.154-1.991-.991z" transform="translate(-7155.127 -8158.954)"/><path d="m7391.2 8337.531c.786-1.521 1.423-1.118 2.26-.272-.701 1.112-1.315 1.233-2.26.272z" transform="translate(-7174.421 -8157.609)"/><path d="m7288.034 8349.261c-1.249-.763-1.26-1.4.094-2.1 1.033.782 1.018 1.416-.094 2.1z" transform="translate(-7160.985 -8158.985)"/><path d="m7312.83 8338.993c.788-1.049 1.4-1 2.082-.23-.819 1.304-.819 1.304-2.082.23z" transform="translate(-7164.307 -8157.828)"/><path d="m7353.136 8318.363c-1.433-.664-1.54-1.283-.374-2.117 1.165.44 1.199 1.067.374 2.117z" transform="translate(-7169.357 -8154.996)"/><path d="m7382.366 8330.109c1.121.47 1.23 1.058.493 2l-1.62-.633z" transform="translate(-7173.134 -8156.784)"/><path d="m7379.42 8303.49c-.235-1.382.156-1.833 1.424-1.513.382 1.21.127 1.769-1.424 1.513z" transform="translate(-7172.891 -8153.141)"/><path d="m7352.775 8331.344c1.147 1.123 1.147 1.123-.23 1.93-.822-.76-.773-1.374.23-1.93z" transform="translate(-7169.357 -8156.943)"/><path d="m7322.261 8155 .9 2.261 2.4.742-2.425 1.241c-.257.724-.537 1.509-.926 2.6-.267-1.779-.84-3.1-2.7-3.466a11.831 11.831 0 0 0 1.89-1.516 8.169 8.169 0 0 0 .861-1.862z" transform="translate(-7165.169 -8134.187)"/><path d="m7321.975 8187.232c1.71.108 2.105.724 1.686 2.145l-2.09.1c.161-.905.27-1.507.404-2.245z" transform="translate(-7165.435 -8138.345)"/><path d="m7302.194 8160.6h1.908v1.734c-1.765.221-1.765.221-1.908-1.734z" transform="translate(-7162.934 -8134.909)"/><path d="m7288.74 8158.876c.171 1.38-.17 2.042-1.134 1.944s-1.146-.837-.8-1.944z" transform="translate(-7160.927 -8134.686)"/><path d="m7270.737 8178.656c1.1-.8 1.679-.6 2.02.461-1.24.967-1.24.967-2.02-.461z" transform="translate(-7158.874 -8137.175)"/><path d="m7270.291 8171.64c-1.188-.9-1.168-1.538-.057-2.213 1.09.626 1.166 1.26.057 2.213z" transform="translate(-7158.702 -8136.047)"/><path d="m7304.413 8176.942-1 1.134c-.339-.16-.619-.208-.767-.374-.721-.819-.317-1.317.665-1.764z" transform="translate(-7162.944 -8136.888)"/><path d="m7295.917 8143.816 1.1 1.339-1.243.923c-1.003-.73-1.074-1.351.143-2.262z" transform="translate(-7162.006 -8132.742)"/><path d="m7277.122 8173.906.323 1.9-1.93-.586-.429-.8 1.122-1.071z" transform="translate(-7159.435 -8136.553)"/><path d="m7272.337 8172.781c.555-1.264 1.206-1.115 1.994-.57-.592 1.411-.592 1.411-1.994.57z" transform="translate(-7159.081 -8136.355)"/><path d="m7290.7 8171.646.229-1.554c1.092-.236 1.585.055 1.429 1.3z" transform="translate(-7161.45 -8136.124)"/><path d="m7216.082 8336.272 1.4 1.5-1.223 1.478-1.6-1.211z" transform="translate(-7151.636 -8157.579)"/><path d="m7213.813 8325.494c-.062 1.557-.62 2.146-1.662 1.714-.907-.375-.86-1.163-.114-2.094z" transform="translate(-7151.226 -8156.14)"/><path d="m7246.65 8318.762 1.887-.128c.145.457.418.864.354 1.209-.181.976-.87 1.113-1.888.752z" transform="translate(-7155.765 -8155.304)"/><path d="m7248.532 8294.245c-.812 1.292-1.439 1.335-2.176.155.551-1.121 1.164-1.332 2.176-.155z" transform="translate(-7155.728 -8152.055)"/><path d="m7197.978 8326.147 1.121 1.242-1.079 1.22-1.251-1.124z" transform="translate(-7149.329 -8156.272)"/><path d="m7234.635 8333.292-.527.539-1.8-1.073 1.76-1.441z" transform="translate(-7153.915 -8156.94)"/><path d="m7209.914 8334.271c.2-1.581.816-1.7 1.908-.943-.092 1.231-.651 1.46-1.908.943z" transform="translate(-7151.024 -8157.142)"/><path d="m7257.53 8198.9 2.065-1.848 2.055 2.207-1.7 2.2z" transform="translate(-7157.169 -8139.613)"/><path d="m7246.546 8195.576c.343.428.674.654.705.918a3.479 3.479 0 0 1 -.237 1.115c-1.755-.476-1.755-.476-.468-2.033z" transform="translate(-7155.633 -8139.422)"/><path d="m7250.608 8201.512c1.611.173 1.665.815.959 1.907-1.21-.111-1.451-.663-.959-1.907z" transform="translate(-7156.245 -8140.188)"/></g></svg>