<?xml version="1.0" encoding="utf-8"?>
<!-- Generator: Adobe Illustrator 23.0.3, SVG Export Plug-In . SVG Version: 6.00 Build 0)  -->
<svg version="1.1" id="Layer_1" xmlns="http://www.w3.org/2000/svg" xmlns:xlink="http://www.w3.org/1999/xlink" x="0px" y="0px"
	 viewBox="0 0 667.2 117.2" style="enable-background:new 0 0 667.2 117.2;" xml:space="preserve">
<style type="text/css">
	.st0{fill:#93D8EF;}
</style>
<g>
	<path class="st0" d="M29.1,37.8H24l-7.2-16.6H5.6v16.6H1V-0.4h15.4c4.2,0,7.3,1.1,9.3,3.3s3,4.7,3,7.3c0,2-0.6,4-1.7,5.9
		c-1.1,1.9-3,3.2-5.6,4L29.1,37.8z M5.6,17.4h10.2c2.7,0,4.7-0.7,6-2.1c1.3-1.4,2-3.1,2-5.1c0-2-0.7-3.6-2.1-4.7
		c-1.4-1.1-3.2-1.7-5.3-1.7H5.6V17.4z"/>
	<path class="st0" d="M41.1-0.4v4.9h-4.8v-4.9H41.1z M41,9.5v28.3h-4.5V9.5H41z"/>
	<path class="st0" d="M73.5,5.1v3.5c-2.1,0-3.4,0.2-4.1,0.7c-0.7,0.5-1.2,1.3-1.4,2.5c1.8,2.1,2.8,4.4,2.8,6.8c0,2.6-1,4.8-3,6.6
		c-2,1.8-4.7,2.8-8.1,2.8c-0.8,0-1.4-0.1-2-0.2c-1-0.2-1.7-0.3-2-0.3c-0.5,0-1.1,0.2-1.9,0.7c-0.7,0.5-1.1,1.1-1.1,1.9
		c0,1.1,0.5,1.8,1.6,2.2c1,0.3,3.5,0.6,7.4,0.6c3.3,0.1,5.7,0.3,7.3,0.7c1.6,0.3,2.9,1.1,4,2.3c1.1,1.2,1.6,2.6,1.6,4.4
		c0,5.4-4.8,8.1-14.5,8.1c-4.6,0-7.9-0.7-10-2c-2.1-1.4-3.2-3.2-3.2-5.4c0-2.7,1.5-4.6,4.4-5.7c-1.9-1.2-2.8-2.7-2.8-4.6
		c0-2.2,1.3-3.9,4-5c-2.5-2-3.7-4.5-3.7-7.5c0-2.8,1.1-5.1,3.2-6.9c2.1-1.8,4.7-2.7,7.8-2.7c2.2,0,4.1,0.4,5.9,1.2
		c0.3-1.8,0.9-3.1,2-3.8c1-0.7,2.6-1.1,4.7-1.1C72.6,5.1,73,5.1,73.5,5.1z M54.4,36.7c-2.1,0.9-3.1,2.2-3.1,3.9
		c0,1.4,0.9,2.6,2.6,3.3c1.7,0.8,3.9,1.2,6.6,1.2c2.5,0,4.7-0.3,6.8-1s3.1-1.8,3.1-3.5c0-0.9-0.3-1.6-0.9-2.2
		c-0.6-0.6-1.4-0.9-2.5-1.1c-1.1-0.1-2.9-0.3-5.5-0.3C58.3,37,55.9,36.9,54.4,36.7z M59.8,24.7c1.9,0,3.5-0.6,4.7-1.7
		c1.2-1.1,1.8-2.6,1.8-4.5c0-1.9-0.6-3.4-1.9-4.6c-1.2-1.2-2.8-1.8-4.5-1.8c-1.7,0-3.2,0.6-4.5,1.7c-1.3,1.1-2,2.7-2,4.7
		c0,1.8,0.6,3.3,1.8,4.4C56.3,24.1,57.9,24.7,59.8,24.7z"/>
	<path class="st0" d="M101.3,37.8h-4.5V20.7c0-2-0.1-3.5-0.4-4.5s-0.9-1.9-1.8-2.6c-1-0.7-2.1-1.1-3.3-1.1c-2.3,0-4.2,0.9-5.8,2.8
		c-1.6,1.8-2.3,4.3-2.3,7.4v15.2h-4.5V-0.4h4.5v15.2c2-4,5-6,8.7-6c1.7,0,3.2,0.3,4.5,1s2.3,1.5,3,2.6s1.2,2.1,1.4,3.2
		s0.4,2.8,0.4,5.2V37.8z"/>
	<path class="st0" d="M123.4,34.8v3.5c-1.6,0.2-3,0.3-4.1,0.3c-5.6,0-8.4-2.9-8.4-8.6V13h-5.1V9.5h5.1l0.2-7.1l4.2-0.4v7.5h6.5V13
		h-6.5v17.8c0,2.9,1.5,4.4,4.6,4.4C121,35.1,122.1,35,123.4,34.8z"/>
	<path class="st0" d="M165.7,37.8h-4.2V19.6c0-2.6-0.6-4.5-1.7-5.5c-1.2-1.1-2.6-1.6-4.2-1.6c-2.3,0-4.2,0.9-5.8,2.7
		c-1.6,1.8-2.3,4.2-2.3,7.1v15.5H143V9.5h4.2v5.2c2.3-4,5.4-6,9.1-6c2.2,0,4,0.5,5.5,1.6c1.5,1.1,2.6,2.3,3.1,3.7
		c0.6,1.4,0.8,3.8,0.8,7.4V37.8z"/>
	<path class="st0" d="M185.1,38.6c-4,0-7.1-1.4-9.3-4.3c-2.2-2.9-3.3-6.4-3.3-10.7c0-4.5,1.2-8.1,3.7-10.8c2.5-2.7,5.6-4,9.3-4
		c4,0,7.1,1.4,9.4,4.2c2.3,2.8,3.4,6.4,3.4,10.6c0,4.4-1.2,8-3.7,10.8C192.2,37.2,189,38.6,185.1,38.6z M185.4,35
		c2.3,0,4.2-0.9,5.7-2.8s2.3-4.7,2.3-8.6c0-3.9-0.8-6.8-2.4-8.5s-3.5-2.6-5.7-2.6c-2.2,0-4.1,0.9-5.7,2.7c-1.5,1.8-2.3,4.6-2.3,8.5
		c0,4.1,0.8,7,2.3,8.8S183.1,35,185.4,35z"/>
	<path class="st0" d="M237.6,9.5l-8.3,28.3h-3.6l-6.4-21l-5.9,21h-3.7L201,9.5h4.5l6.3,21.1l6-21.1h3.3l6.5,21.2L234,9.5H237.6z"/>
	<path class="st0" d="M247.1,31.4v5.7l-4.3,7.8h-2.4l3.4-7.2h-2.9v-6.4H247.1z"/>
	<path class="st0" d="M5.3,68.4v4.9H0.4v-4.9H5.3z M5.1,78.4v28.3H0.6V78.4H5.1z"/>
	<path class="st0" d="M36.8,106.6h-4.2V88.5c0-2.6-0.6-4.5-1.7-5.5c-1.2-1.1-2.6-1.6-4.2-1.6c-2.3,0-4.2,0.9-5.8,2.7
		c-1.6,1.8-2.3,4.2-2.3,7.1v15.5h-4.5V78.4h4.2v5.2c2.3-4,5.4-6,9.1-6c2.2,0,4,0.5,5.5,1.6c1.5,1.1,2.6,2.3,3.1,3.7
		c0.6,1.4,0.8,3.8,0.8,7.4V106.6z"/>
	<path class="st0" d="M80.3,78.4l-11.6,31.6c-1.7,4.6-4.4,6.8-8,6.8c-1.2,0-2.5-0.2-3.9-0.6v-3.4c1.2,0.3,2.2,0.4,3,0.4
		c1.4,0,2.6-0.4,3.6-1.2c1-0.8,1.9-2.8,2.9-5.9l-10-27.7h4.6l7.8,21.3l7.9-21.3H80.3z"/>
	<path class="st0" d="M94.3,107.4c-4,0-7.1-1.4-9.3-4.3c-2.2-2.9-3.3-6.4-3.3-10.7c0-4.5,1.2-8.1,3.7-10.8c2.5-2.7,5.6-4,9.3-4
		c4,0,7.1,1.4,9.4,4.2c2.3,2.8,3.4,6.4,3.4,10.6c0,4.4-1.2,8-3.7,10.8C101.4,106,98.2,107.4,94.3,107.4z M94.7,103.8
		c2.3,0,4.2-0.9,5.7-2.8s2.3-4.7,2.3-8.6c0-3.9-0.8-6.8-2.4-8.5s-3.5-2.6-5.7-2.6c-2.2,0-4.1,0.9-5.7,2.7c-1.5,1.8-2.3,4.6-2.3,8.5
		c0,4.1,0.8,7,2.3,8.8C90.5,102.9,92.4,103.8,94.7,103.8z"/>
	<path class="st0" d="M137.1,106.6h-4.1v-5.4c-2.1,4.1-5.1,6.2-9.2,6.2c-3,0-5.3-1-7-2.9c-1.7-1.9-2.5-4.6-2.5-8.1V78.4h4.5v18.1
		c0,2.8,0.6,4.7,1.8,5.8c1.2,1.1,2.5,1.6,3.9,1.6c1.4,0,2.8-0.4,3.9-1.2c1.2-0.8,2.1-1.9,2.9-3.4c0.8-1.5,1.2-3.1,1.2-4.9V78.4h4.5
		V106.6z"/>
	<path class="st0" d="M150.6,106.6h-4.5V78.4h3.9V85c1.4-3.1,2.8-5.1,4.2-6.1c1.4-0.9,2.8-1.4,4.3-1.4c0.5,0,1,0,1.8,0.1v4.2h-0.9
		c-2.5,0-4.5,0.9-6.2,2.7c-1.6,1.8-2.5,4.2-2.6,7.1V106.6z"/>
	<path class="st0" d="M203.6,73.9v3.5c-2.1,0-3.4,0.2-4.1,0.7c-0.7,0.5-1.2,1.3-1.4,2.5c1.8,2.1,2.8,4.4,2.8,6.8c0,2.6-1,4.8-3,6.6
		c-2,1.8-4.7,2.8-8.1,2.8c-0.8,0-1.4-0.1-2-0.2c-1-0.2-1.7-0.3-2-0.3c-0.5,0-1.1,0.2-1.9,0.7c-0.7,0.5-1.1,1.1-1.1,1.9
		c0,1.1,0.5,1.8,1.6,2.2c1,0.3,3.5,0.6,7.4,0.6c3.3,0.1,5.7,0.3,7.3,0.7c1.6,0.3,2.9,1.1,4,2.3s1.6,2.6,1.6,4.4
		c0,5.4-4.8,8.1-14.5,8.1c-4.6,0-7.9-0.7-10-2c-2.1-1.4-3.2-3.2-3.2-5.4c0-2.7,1.5-4.6,4.4-5.7c-1.9-1.2-2.8-2.7-2.8-4.6
		c0-2.2,1.3-3.9,4-5c-2.5-2-3.7-4.5-3.7-7.5c0-2.8,1.1-5.1,3.2-6.9c2.1-1.8,4.7-2.7,7.8-2.7c2.2,0,4.1,0.4,5.9,1.2
		c0.3-1.8,0.9-3.1,2-3.8c1-0.7,2.6-1.1,4.7-1.1C202.7,73.9,203.1,73.9,203.6,73.9z M184.5,105.5c-2.1,0.9-3.1,2.2-3.1,3.9
		c0,1.4,0.9,2.6,2.6,3.3c1.7,0.8,3.9,1.2,6.6,1.2c2.5,0,4.7-0.3,6.8-1s3.1-1.8,3.1-3.5c0-0.9-0.3-1.6-0.9-2.2
		c-0.6-0.6-1.4-0.9-2.5-1.1c-1.1-0.1-2.9-0.3-5.5-0.3C188.3,105.8,186,105.7,184.5,105.5z M189.9,93.5c1.9,0,3.5-0.6,4.7-1.7
		c1.2-1.1,1.8-2.6,1.8-4.5c0-1.9-0.6-3.4-1.9-4.6c-1.2-1.2-2.8-1.8-4.5-1.8c-1.7,0-3.2,0.6-4.5,1.7c-1.3,1.1-2,2.7-2,4.7
		c0,1.8,0.6,3.3,1.8,4.4S188,93.5,189.9,93.5z"/>
	<path class="st0" d="M231.4,106.6h-4.4c-0.2-0.9-0.3-2.6-0.5-5.1c-2,3.9-5.4,5.9-10.1,5.9c-3.2,0-5.7-0.8-7.5-2.5
		c-1.7-1.7-2.6-3.7-2.6-6.1c0-2.9,1.2-5.2,3.7-7.1s6.7-2.8,12.6-2.8c0.8,0,2.1,0,3.8,0.1c0-2.2-0.2-3.9-0.5-4.9
		c-0.4-1-1.1-1.8-2.2-2.4c-1.1-0.6-2.6-0.9-4.5-0.9c-4.6,0-7.2,1.7-7.9,5.1l-4.1-0.7c1-5.2,5.3-7.8,12.8-7.8c4,0,6.8,0.9,8.5,2.6
		c1.7,1.7,2.5,4.7,2.5,9v12C230.8,103.2,231,105,231.4,106.6z M226.4,92.5c-1.8-0.1-3.2-0.2-4.2-0.2c-3.5,0-6.3,0.6-8.3,1.7
		c-2,1.1-2.9,2.8-2.9,5c0,1.4,0.5,2.6,1.6,3.5c1.1,1,2.6,1.5,4.6,1.5c2.7,0,4.9-1,6.7-2.9c1.7-1.9,2.6-4.2,2.6-6.8
		C226.5,93.8,226.5,93.2,226.4,92.5z"/>
	<path class="st0" d="M244.2,106.6h-4.5V68.4h4.5V106.6z"/>
	<path class="st0" d="M275.8,106.6h-4.4c-0.2-0.9-0.3-2.6-0.5-5.1c-2,3.9-5.4,5.9-10.1,5.9c-3.2,0-5.7-0.8-7.5-2.5s-2.6-3.7-2.6-6.1
		c0-2.9,1.2-5.2,3.7-7.1c2.5-1.8,6.7-2.8,12.6-2.8c0.8,0,2.1,0,3.8,0.1c0-2.2-0.2-3.9-0.5-4.9c-0.4-1-1.1-1.8-2.2-2.4
		c-1.1-0.6-2.6-0.9-4.5-0.9c-4.6,0-7.2,1.7-7.9,5.1l-4.1-0.7c1-5.2,5.3-7.8,12.8-7.8c4,0,6.8,0.9,8.5,2.6s2.5,4.7,2.5,9v12
		C275.2,103.2,275.4,105,275.8,106.6z M270.9,92.5c-1.8-0.1-3.2-0.2-4.2-0.2c-3.5,0-6.3,0.6-8.3,1.7c-2,1.1-2.9,2.8-2.9,5
		c0,1.4,0.5,2.6,1.6,3.5c1.1,1,2.6,1.5,4.6,1.5c2.7,0,4.9-1,6.7-2.9c1.7-1.9,2.6-4.2,2.6-6.8C270.9,93.8,270.9,93.2,270.9,92.5z"/>
	<path class="st0" d="M304.3,106.6h-5.2l-7.3-11.5l-7.5,11.5h-4.4l9.7-14.7l-8.8-13.6h5.2l6.1,9.6l6.3-9.6h4.3L294.4,91L304.3,106.6
		z"/>
	<path class="st0" d="M328.8,78.4l-11.6,31.6c-1.7,4.6-4.4,6.8-8,6.8c-1.2,0-2.5-0.2-3.9-0.6v-3.4c1.2,0.3,2.2,0.4,3,0.4
		c1.4,0,2.6-0.4,3.6-1.2c1-0.8,1.9-2.8,2.9-5.9l-10-27.7h4.6l7.8,21.3l7.9-21.3H328.8z"/>
	<path class="st0" d="M337,100.4v6.3h-6.4v-6.3H337z"/>
</g>
</svg>
