<svg xmlns="http://www.w3.org/2000/svg" width="99.035" height="99.062" viewBox="0 0 99.035 99.062">
  <g id="Group_107" data-name="Group 107" transform="translate(-876.067 -10457.027)">
    <path id="Path_244" data-name="Path 244" d="M-329.847,301.915a49.449,49.449,0,0,1,35.014,14.5,49.4,49.4,0,0,1,14.5,35.041,49.381,49.381,0,0,1-14.5,35.013,49.449,49.449,0,0,1-35.014,14.5,49.448,49.448,0,0,1-35.013-14.5,49.381,49.381,0,0,1-14.5-35.013,49.4,49.4,0,0,1,14.5-35.041,49.448,49.448,0,0,1,35.013-14.5Zm32.3,17.246a45.592,45.592,0,0,0-32.3-13.353,45.478,45.478,0,0,0-32.271,13.353,45.566,45.566,0,0,0-13.38,32.3,45.55,45.55,0,0,0,13.38,32.272,45.51,45.51,0,0,0,32.271,13.38,45.624,45.624,0,0,0,32.3-13.38,45.531,45.531,0,0,0,13.353-32.272,45.547,45.547,0,0,0-13.353-32.3Z" transform="translate(1255.432 10155.112)" fill="#ff6200"/>
    <path id="Path_245" data-name="Path 245" d="M-305.06,363.88v-.054h-.055v0a4.812,4.812,0,0,0-1.618-.576h-.027a13.68,13.68,0,0,1-6.553-4.827,16.9,16.9,0,0,1-2.3-3.947h0a1.907,1.907,0,0,1,.083-1.7h.055a4.842,4.842,0,0,1,2.248-1.48h0a8.6,8.6,0,0,0,3.071-1.562h0a1.121,1.121,0,0,0,.466-.576,1.17,1.17,0,0,1,.082-.22,1.269,1.269,0,0,0-.082-.822h0a2.442,2.442,0,0,0-1.042-1.014h0a2.474,2.474,0,0,0-1.864-.166h0a6.689,6.689,0,0,1-1.618.467c-.027,0-.027.055-.027.055a4.617,4.617,0,0,1-1.865-.055,1.288,1.288,0,0,0-.055-.411h0c0-1.1.082-2.249.082-3.483h0a34.164,34.164,0,0,0-.109-5.538v-.055a12.6,12.6,0,0,0-5.21-7.705,12.951,12.951,0,0,0-6.389-2.22h0a21.4,21.4,0,0,0-2.3-.138,14.293,14.293,0,0,0-8.664,2.8,13.543,13.543,0,0,0-4.25,5.512v.027a15.4,15.4,0,0,0-.659,6.745h0c.028,1.507.192,2.988.083,4.443,0,.026,0,.026-.055.081a6.417,6.417,0,0,1-2.166-.055h-.028c-.52-.082-1.014-.3-1.645-.467h-.054a1.8,1.8,0,0,0-1.618.357h-.028v.028a1.7,1.7,0,0,0-.931,1.37.166.166,0,0,0,.027.11h.027a1.55,1.55,0,0,0,.549.9,2.252,2.252,0,0,0,.575.411v.055a19.9,19.9,0,0,0,3.428,1.481h0a2.366,2.366,0,0,1,1.535,1.48,3.78,3.78,0,0,1-.6,2.605h0a15.809,15.809,0,0,1-5.209,5.977,13.014,13.014,0,0,1-3.811,1.728h-.028a2.257,2.257,0,0,0-1.37.822.235.235,0,0,0-.083.165,1.143,1.143,0,0,0,.22,1.042,1.637,1.637,0,0,0,.6.466h0a12.925,12.925,0,0,0,3.537,1.233h0a20.772,20.772,0,0,1,2.221.549c.028.055.11.247.247.6.219.63.3,1.4.548,2.165a.642.642,0,0,0,.466.411,1.255,1.255,0,0,0,.85-.054.027.027,0,0,0,.028-.028,14.355,14.355,0,0,1,5.593-.164h0c1.864.466,3.427,1.728,5.265,2.824h0a8.264,8.264,0,0,0,4.167,1.536h0a25.606,25.606,0,0,0,3.564-.083h0a6.622,6.622,0,0,0,2.8-.932l.054-.055c1.892-1.042,3.539-2.358,5.4-3.181h0a10.02,10.02,0,0,1,2.194-.246h0a31.737,31.737,0,0,1,4.578.246h.164a.859.859,0,0,0,.521-.274c.109-.136.109-.274.165-.356.054-.109.081-.192,0-.083.054-.026.054-.081.081-.109a6.244,6.244,0,0,1,.851-2.249,1.309,1.309,0,0,1,.959-.3h.11a18.545,18.545,0,0,0,3.619-1.015c0-.055,0-.055.055-.055a3.054,3.054,0,0,0,1.426-.96h0a1.007,1.007,0,0,0-.274-1.481Z" transform="translate(1255.432 10155.112)" fill="#ff6200" fill-rule="evenodd"/>
  </g>
</svg>
