<svg xmlns="http://www.w3.org/2000/svg" width="430.709" height="52.655" viewBox="0 0 430.709 52.655">
  <g id="c8Sj7W.tif" transform="translate(-7523.951 -8021.655)">
    <g id="Group_6" data-name="Group 6" transform="translate(7523.951 8021.655)">
      <path id="Path_23" data-name="Path 23" d="M7544.9,8060.079h18.164c.493,0,.987.028,1.477-.014,1.182-.1,1.66-.513,1.711-1.7.073-1.615.028-3.239.012-4.855a1.34,1.34,0,0,0-1.472-1.433c-.562-.027-1.126-.02-1.688-.02-8.167,0-16.335.025-24.5-.017-2.177-.012-4.362-.139-6.527-.361-4.262-.44-6.2-2.4-6.435-6.657a72.061,72.061,0,0,1,.05-7.575,5.444,5.444,0,0,1,4.459-5.45,28.808,28.808,0,0,1,5.845-.648c4.576-.091,9.153-.028,13.728-.028,4.788,0,9.576-.059,14.361.028a30.876,30.876,0,0,1,5.638.639,6.721,6.721,0,0,1,4.273,2.89c.393.583.914,1.272.33,1.906a3.182,3.182,0,0,1-1.61.656,6.956,6.956,0,0,1-1.473.022h-32.526c-.494,0-.986-.014-1.48,0-1.878.066-2.15.34-2.181,2.269-.017,1.2-.051,2.4.023,3.59.078,1.231.474,1.569,1.722,1.652.56.038,1.126.011,1.687.011,9.013.012,18.024,0,27.035.058a25.448,25.448,0,0,1,4.818.5c3.56.712,5.3,2.587,5.543,6.191a63.756,63.756,0,0,1,.011,8.23c-.221,3.643-1.878,5.537-5.489,6.208a39.376,39.376,0,0,1-6.92.607q-13.727.1-27.456-.007a45.52,45.52,0,0,1-7.537-.759,5.328,5.328,0,0,1-4.409-4.068c-.364-1.347-.026-1.851,1.387-1.891,2.18-.06,4.365-.021,6.545-.021H7544.9Z" transform="translate(-7523.95 -8014.196)" fill="#fff"/>
      <path id="Path_24" data-name="Path 24" d="M7571.905,8066.678h-10.332a10.064,10.064,0,0,1-.218-1.441q-.016-15.721,0-31.443c0-2.073.5-2.477,2.953-2.479q18.885-.012,37.772,0a13.887,13.887,0,0,1,2.735.135,19.715,19.715,0,0,1,4.027,1.133,4.648,4.648,0,0,1,2.916,4.312c.087,3.443.1,6.893,0,10.335a4.925,4.925,0,0,1-3.849,4.756,23.8,23.8,0,0,1-6.216.92c-8.58.1-17.163.042-25.745.042-.491,0-.985-.01-1.477,0-2.066.046-2.442.407-2.457,2.495-.02,3.025,0,6.049-.011,9.075C7572.005,8065.2,7571.944,8065.887,7571.905,8066.678Zm14.051-19.973c3.511,0,7.024.012,10.538-.009a14.443,14.443,0,0,0,2.724-.206,2.165,2.165,0,0,0,2-2.112c.045-1.543.047-3.089,0-4.633a1.98,1.98,0,0,0-1.809-2.008,19.732,19.732,0,0,0-3.13-.333c-6.182-.031-12.366-.016-18.548-.016-1.195,0-2.391-.033-3.584.012-1.611.058-2.082.548-2.121,2.2-.036,1.474-.024,2.951-.006,4.427.027,2.245.451,2.663,2.769,2.674C7578.508,8046.719,7582.232,8046.707,7585.957,8046.706Z" transform="translate(-7495.03 -8014.187)" fill="#fff"/>
      <path id="Path_25" data-name="Path 25" d="M7679.313,8060.076c-.286,3.8-1.458,5.385-4.784,6.042a37.222,37.222,0,0,1-6.913.66q-13.413.109-26.824,0a37.7,37.7,0,0,1-7.118-.713c-3.168-.639-4.6-2.537-4.854-5.793-.017-.209-.032-.42-.032-.632,0-7.111-.065-14.222.025-21.332.049-3.946,1.642-5.776,5.522-6.552a25.383,25.383,0,0,1,4.82-.419c10.069-.036,20.136-.049,30.2.011a25.9,25.9,0,0,1,5.85.637,5.1,5.1,0,0,1,4.19,5.7h-36.254c-.564,0-1.13-.029-1.69.016-1.426.109-1.878.52-1.887,1.969q-.045,9.084,0,18.165c.008,1.51.715,2.138,2.213,2.229.56.036,1.127.011,1.689.011h35.84Z" transform="translate(-7442.888 -8014.192)" fill="#fff"/>
      <path id="Path_26" data-name="Path 26" d="M7818.028,8021.76c-3.057.742-5.941,1.351-8.771,2.153-7.437,2.1-14.929,4.064-22.256,6.507a190,190,0,0,0-27.741,11.8,184.482,184.482,0,0,0-31.1,20.176,124.43,124.43,0,0,0-11.584,10.39,3.261,3.261,0,0,1-2.6,1.1c-3.731-.049-7.462-.018-11.2-.02a5.367,5.367,0,0,1-1.053-.037,1.293,1.293,0,0,1-.84-2.079,7.021,7.021,0,0,1,1.027-1.06,161.3,161.3,0,0,1,13.456-11.115,183.512,183.512,0,0,1,27.69-16.533,209.6,209.6,0,0,1,22.375-9.352,216.35,216.35,0,0,1,23.618-7.1c7.879-1.768,15.815-3.289,23.751-4.791A29.5,29.5,0,0,1,7818.028,8021.76Z" transform="translate(-7387.319 -8021.655)" fill="#fff"/>
      <path id="Path_27" data-name="Path 27" d="M7713.715,8055.451v5.818c-1.557.459-44.865.58-47.432.156-.4-1.5-.5-20.627-.12-23.078,1.5-.4,29.27-.53,32.134-.123v5.745c-.776.039-1.523.107-2.269.109q-7.917.012-15.833,0a13.884,13.884,0,0,0-1.475.018c-1.224.124-1.762.631-1.786,1.894q-.077,3.8,0,7.6c.025,1.269.529,1.723,1.814,1.838.559.05,1.124.019,1.688.019q15.411,0,30.82,0Z" transform="translate(-7414.146 -8009.031)" fill="#fff"/>
      <path id="Path_28" data-name="Path 28" d="M7596,8059.633c1.938-2.29,3.456-4.2,5.129-5.969.383-.4,1.293-.417,1.961-.421,5.7-.031,11.4,0,17.1-.037.858,0,1.952.458,2.525-.53.651-1.118-.43-1.812-.953-2.565-2.286-3.3-4.632-6.548-6.95-9.82-.4-.565-.775-1.148-1.248-1.853l6.519-8.041c9.135,12.354,18.093,24.472,27.248,36.855a15.518,15.518,0,0,1-1.762.245c-3.1.019-6.193-.035-9.288.033a2.839,2.839,0,0,1-2.646-1.35c-1-1.446-2.1-2.818-3.164-4.222a5.486,5.486,0,0,0-4.685-2.343c-9.008.041-18.015.018-27.022.018Z" transform="translate(-7468.229 -8014.894)" fill="#fff"/>
      <path id="Path_29" data-name="Path 29" d="M7666,8037.83v-6.11c1.569-.466,45-.616,48.107-.161a49.934,49.934,0,0,1,.079,6.124C7712.56,8038.148,7668.988,8038.28,7666,8037.83Z" transform="translate(-7414.089 -8014.208)" fill="#fff"/>
      <path id="Path_30" data-name="Path 30" d="M7718.445,8047.792l8.925-6.97c1.263.893,2.412,1.684,3.539,2.507q9.1,6.661,18.194,13.353c.574.421,1.56.649,1.3,1.681-.3,1.185-1.31,1.083-2.227,1.083-4.289,0-8.582.028-12.871-.026a4,4,0,0,1-2.166-.6c-4.8-3.434-9.557-6.94-14.32-10.432C7718.719,8048.315,7718.673,8048.162,7718.445,8047.792Z" transform="translate(-7373.527 -8006.832)" fill="#fff"/>
      <path id="Path_31" data-name="Path 31" d="M7718.416,8045.783c-5.9-4.3-11.681-8.511-17.405-12.684.513-1.879.513-1.918,2.03-1.925,4.423-.021,8.846-.03,13.269.015a3.628,3.628,0,0,1,1.957.542c3.652,2.6,7.254,5.278,11.135,8.122Z" transform="translate(-7387.012 -8014.306)" fill="#fff"/>
    </g>
  </g>
</svg>
