<svg height="99.062" viewBox="0 0 99.036 99.062" width="99.036" xmlns="http://www.w3.org/2000/svg"><g fill="#ff6200" transform="translate(147.672 -189.915)"><path d="m-98.153 189.915a49.448 49.448 0 0 1 35.013 14.5 49.4 49.4 0 0 1 14.5 35.041 49.381 49.381 0 0 1 -14.5 35.013 49.448 49.448 0 0 1 -35.013 14.5 49.443 49.443 0 0 1 -35.013-14.5 49.375 49.375 0 0 1 -14.506-35.013 49.393 49.393 0 0 1 14.506-35.041 49.443 49.443 0 0 1 35.013-14.5zm32.271 17.246a45.477 45.477 0 0 0 -32.271-13.353 45.478 45.478 0 0 0 -32.273 13.353 45.462 45.462 0 0 0 -13.38 32.3 45.446 45.446 0 0 0 13.38 32.272 45.509 45.509 0 0 0 32.273 13.38 45.508 45.508 0 0 0 32.271-13.38 45.442 45.442 0 0 0 13.382-32.273 45.458 45.458 0 0 0 -13.38-32.3z"/><path d="m-72.874 224.023a22.123 22.123 0 0 1 -5.949 1.618 10.232 10.232 0 0 0 4.579-5.676 21.124 21.124 0 0 1 -6.608 2.5 10.339 10.339 0 0 0 -7.6-3.235 10.306 10.306 0 0 0 -10.366 10.2 10.671 10.671 0 0 0 .3 2.332 29.446 29.446 0 0 1 -21.382-10.673 10.3 10.3 0 0 0 -1.424 5.128 10.2 10.2 0 0 0 4.6 8.5 10.037 10.037 0 0 1 -4.687-1.262v.137a9.658 9.658 0 0 0 .712 3.674 10.343 10.343 0 0 0 7.624 6.307 10.2 10.2 0 0 1 -2.743.383 9.238 9.238 0 0 1 -1.948-.219 10.46 10.46 0 0 0 9.681 7.129 20.978 20.978 0 0 1 -12.861 4.36c-.85 0-1.644-.056-2.494-.138a29.935 29.935 0 0 0 15.9 4.579c16.2 0 26.212-11.214 28.815-22.867a28.051 28.051 0 0 0 .686-6.169v-1.316a21.448 21.448 0 0 0 5.155-5.292z" fill-rule="evenodd"/></g></svg>