<svg height="99.063" viewBox="0 0 99.037 99.063" width="99.037" xmlns="http://www.w3.org/2000/svg"><g fill="#ff6200" transform="translate(263.606 -302.915)"><path d="m-214.087 302.915a49.447 49.447 0 0 1 35.014 14.5 49.4 49.4 0 0 1 14.505 35.041 49.386 49.386 0 0 1 -14.505 35.013 49.448 49.448 0 0 1 -35.014 14.505 49.448 49.448 0 0 1 -35.013-14.501 49.39 49.39 0 0 1 -14.5-35.013 49.408 49.408 0 0 1 14.5-35.041 49.447 49.447 0 0 1 35.014-14.5zm32.272 17.246a45.479 45.479 0 0 0 -32.272-13.353 45.479 45.479 0 0 0 -32.272 13.353 45.461 45.461 0 0 0 -13.379 32.3 45.445 45.445 0 0 0 13.379 32.272 45.51 45.51 0 0 0 32.272 13.38 45.51 45.51 0 0 0 32.272-13.38 45.44 45.44 0 0 0 13.378-32.272 45.456 45.456 0 0 0 -13.378-32.3z"/><path d="m-189.3 341.9s-.519-3.647-2.029-5.237a7.242 7.242 0 0 0 -5.044-2.249c-7.074-.52-17.685-.52-17.685-.52h-.056s-10.582 0-17.658.52a7.21 7.21 0 0 0 -5.071 2.249c-1.509 1.59-2.028 5.237-2.028 5.237a80.425 80.425 0 0 0 -.523 8.5v4.031a79.091 79.091 0 0 0 .523 8.5s.519 3.647 2.028 5.264c1.919 2.111 4.443 2.029 5.594 2.248 4.03.412 17.191.549 17.191.549s10.611-.055 17.685-.549a7.114 7.114 0 0 0 5.044-2.248c1.51-1.617 2.029-5.264 2.029-5.264a83.834 83.834 0 0 0 .493-8.5v-4.031c0-4.222-.493-8.5-.493-8.5zm-16.341 9.981-13.682 7.374v-14.8l6.2 3.373z" fill-rule="evenodd"/></g></svg>